<svg xmlns="http://www.w3.org/2000/svg" xmlns:xlink="http://www.w3.org/1999/xlink" viewBox="0 0 388.2 103.44"><defs><style>.cls-1{isolation:isolate;}.cls-11,.cls-12,.cls-2,.cls-8{fill:#6d3902;}.cls-3{fill:#b06511;}.cls-4{fill:#e0ae38;}.cls-5{fill:#fffac5;}.cls-6{fill:url(#linear-gradient);}.cls-7{fill:#fffb96;}.cls-8{opacity:0.32;}.cls-9{fill:#f5e292;}.cls-10{fill:#fcd61b;}.cls-11{opacity:0.35;}.cls-12{opacity:0.33;}.cls-13{fill:#914900;}.cls-14{fill:#faf8ca;mix-blend-mode:overlay;}</style><linearGradient id="linear-gradient" x1="194.1" y1="-7.05" x2="194.1" y2="99.37" gradientUnits="userSpaceOnUse"><stop offset="0" stop-color="#fde401"/><stop offset="1" stop-color="#ce7c14"/></linearGradient></defs><g class="cls-1"><g id="Слой_2" data-name="Слой 2"><g id="Слой_1-2" data-name="Слой 1"><rect class="cls-2" width="388.2" height="103.44" rx="21.53"/><rect class="cls-3" x="2.25" y="2.25" width="383.7" height="98.94" rx="19.28"/><path class="cls-4" d="M2.25,22.86C7.24,24.53,14.31,27,14.31,27l358,26.37,12.55-7.06,1.06-.91V21.53A19.28,19.28,0,0,0,366.68,2.25H21.53A19.28,19.28,0,0,0,2.25,21.53Z"/><path class="cls-5" d="M28.87,7.18H359.33a18.43,18.43,0,0,1,18.43,18.43V73.55A18.42,18.42,0,0,1,359.33,92H28.87A18.42,18.42,0,0,1,10.45,73.55V25.61A18.43,18.43,0,0,1,28.87,7.18Z"/><path class="cls-6" d="M28.87,9.33H359.33a18.43,18.43,0,0,1,18.43,18.43V75.69a18.42,18.42,0,0,1-18.42,18.42H28.87A18.42,18.42,0,0,1,10.45,75.69V27.75A18.43,18.43,0,0,1,28.87,9.33Z"/><path class="cls-7" d="M359.33,92.75H28.87A18.43,18.43,0,0,1,10.45,74.32v1.37A18.43,18.43,0,0,0,28.87,94.12H359.33a18.43,18.43,0,0,0,18.43-18.43V74.32A18.43,18.43,0,0,1,359.33,92.75Z"/><path class="cls-8" d="M132.12,90.66a27.93,27.93,0,0,1-4.12.7c-1.37.13-2.75.21-4.12.22s-2.75,0-4.13-.13a28,28,0,0,1-4.13-.61,26.79,26.79,0,0,1,4.11-.71c1.38-.13,2.75-.2,4.13-.22s2.75,0,4.13.14A26.91,26.91,0,0,1,132.12,90.66Z"/><path class="cls-9" d="M132.65,90.5s-6.36,1.38-10.51,1.07a50.43,50.43,0,0,1-6.82-.92,32.5,32.5,0,0,0,7.55,1.65C126.47,92.53,132.65,90.5,132.65,90.5Z"/><path class="cls-2" d="M128.34,90.93s-5.66-.32-6.52-.34-4.11.16-4.11.16S123.61,92.19,128.34,90.93Z"/><path class="cls-8" d="M339.46,10.84a27.88,27.88,0,0,1-4.06,1c-1.36.23-2.73.39-4.1.51s-2.75.16-4.13.15a28,28,0,0,1-4.16-.33,26.65,26.65,0,0,1,4.06-1c1.36-.23,2.73-.4,4.1-.51s2.74-.16,4.13-.15A28,28,0,0,1,339.46,10.84Z"/><path class="cls-9" d="M340,10.64s-6.24,1.81-10.41,1.79A49.69,49.69,0,0,1,322.7,12a32.89,32.89,0,0,0,7.65,1.13C334,13.1,340,10.64,340,10.64Z"/><path class="cls-2" d="M335.71,11.36s-5.67.08-6.53.12-4.09.44-4.09.44S331.08,13,335.71,11.36Z"/><path class="cls-8" d="M16.79,4.5A27.82,27.82,0,0,1,14.56,8c-.82,1.11-1.68,2.18-2.59,3.21s-1.86,2-2.86,3A26.93,26.93,0,0,1,5.89,16.9a28.86,28.86,0,0,1,2.23-3.53c.82-1.11,1.69-2.18,2.59-3.22s1.86-2,2.87-3A27.89,27.89,0,0,1,16.79,4.5Z"/><path class="cls-9" d="M17,4S13.8,9.65,10.8,12.54A50.23,50.23,0,0,1,5.56,17a32.53,32.53,0,0,0,6.27-4.52C14.41,10,17,4,17,4Z"/><path class="cls-2" d="M14.47,7.49s-4,4-4.61,4.63-2.63,3.17-2.63,3.17S12.24,11.86,14.47,7.49Z"/><path class="cls-2" d="M69.56,95.61l-4.28.85H62.92s1.6.27,2.19.41,2.48.21,2.65.71S67,100,67.4,99.71A30.12,30.12,0,0,0,69.56,95.61Z"/><path class="cls-10" d="M65.11,96.87l-2.3-.28,2.14.6a18.24,18.24,0,0,0,2.66.22A15.08,15.08,0,0,0,65.11,96.87Z"/><path class="cls-2" d="M8.15,98.09l7.43-4,3.33-3s-1.8,2.5-2.4,3.47S13.36,98.09,14,99.17s5.06,3.11,4,3.16S8.15,98.09,8.15,98.09Z"/><path class="cls-10" d="M16.51,94.58,19.12,91s-1.75,3.74-1.87,3.92-3,3.8-3.38,3.76S16.51,94.58,16.51,94.58Z"/><path class="cls-11" d="M6,95.33s6.73-1.59,7.35-1.84L19.12,91l-3.28,3.32-5.76,3.56Z"/><path class="cls-2" d="M10.14,24.21l4.26,4L17.1,30s-2-.84-2.79-1.11-3-1.54-3.54-1.09S9.93,31,9.66,30.43,10.14,24.21,10.14,24.21Z"/><path class="cls-10" d="M14.31,28.84l2.82,1.33s-2.72-.8-2.86-.86a22.56,22.56,0,0,1-3.2-1.66A22.52,22.52,0,0,1,14.31,28.84Z"/><path class="cls-3" d="M11.44,22.84S14,26.68,14.31,27,17.1,30,17.1,30l-2.7-1.7-3.67-2.77Z"/><path class="cls-2" d="M1.81,21.17c.18-.28,8.33,3,8.33,3l-.48,6.22L1.42,32.72S-.13,24.28,1.81,21.17Z"/><path class="cls-2" d="M381.58,45.1,375,50.8l-3.43,2.59a34.74,34.74,0,0,1,3.55-1.74c1.11-.38,4.77-2.08,5.58-1.44s1.22,4.74,1.61,3.88S381.58,45.1,381.58,45.1Z"/><path class="cls-10" d="M375.08,51.65l-3.6,2.06,3.67-1.38A13.43,13.43,0,0,0,378,50.64C378.1,50.32,375.08,51.65,375.08,51.65Z"/><path class="cls-3" d="M378,44.78s-2.49,3.75-2.93,4.24-3.56,4.37-3.56,4.37L375,50.8l3-2Z"/><path class="cls-2" d="M386.42,42.44c-.26-.4-4.84,2.66-4.84,2.66l.69,9,5.62,2.12S389.22,46.94,386.42,42.44Z"/><path class="cls-3" d="M9.75,45.3s3.83.59,3.67,6.56-4.26,6.88-4.26,6.88Z"/><path class="cls-12" d="M12.83,52.85a16.49,16.49,0,0,0-1.43-3.5,1.87,1.87,0,0,1-.6-1.9,7.14,7.14,0,0,1,.37-1.5,6.88,6.88,0,0,1,2.36,4.69,12.41,12.41,0,0,1-.71,4.5Z"/><path class="cls-2" d="M115.32,8.57s-.64,3-5.15,3.21-5-2.94-5-2.94Z"/><path class="cls-13" d="M108.15,10.09l-1.6-.94-1.24.14s.34,1.71,2.85,2.33a6.58,6.58,0,0,0,5.1-.62C114,10.51,109.52,10.9,108.15,10.09Z"/><path class="cls-2" d="M115.51,2.5c.06.19.4,5.69-.19,6.07s-10,.72-10,.72l-1.24-8.1S114.75.06,115.51,2.5Z"/><path class="cls-2" d="M347.14.3s3.37,5.76,4.15,5.86,10.3-3.8,10.8-4S358.75-.31,347.14.3Z"/><path class="cls-14" d="M360.39,2.64s-8.62,3.48-8.86,3.5a5.42,5.42,0,0,1-2.28-2.22C348.64,2.75,348,1.6,348,1.6s1.6,2.86,2.12,3.91a3.64,3.64,0,0,0,2,1.5l9-4.29Z"/><path class="cls-3" d="M313.65,94.29s1-3.67,6.61-3.59,5.95,4,5.95,4Z"/><path class="cls-12" d="M321.12,91.26a17.51,17.51,0,0,0-3.46,1.4,1.93,1.93,0,0,1-1.87.6,6.25,6.25,0,0,1-1.36-.33,7.61,7.61,0,0,1,4.69-2.32,10.58,10.58,0,0,1,4.15.62Z"/><path class="cls-4" d="M289.84,6.06s-.72,4.33-7.11,4.91-7.28-3.85-7.28-3.85Z"/><path class="cls-3" d="M279.75,8.7l-2.34-1.23-1.75.27s.59,2.42,4.21,3.13a9.34,9.34,0,0,0,7.2-1.21C288.08,8.91,281.75,9.76,279.75,8.7Z"/><path class="cls-8" d="M348.48,96.42A36.48,36.48,0,0,1,343,97.57c-1.82.25-3.66.41-5.49.51s-3.68.1-5.52,0a36.24,36.24,0,0,1-5.55-.61,35.12,35.12,0,0,1,5.46-1.14c1.83-.26,3.66-.42,5.5-.51s3.67-.1,5.52,0A37.65,37.65,0,0,1,348.48,96.42Z"/><path class="cls-9" d="M349.17,96.18s-8.41,2.17-14,2a67,67,0,0,1-9.15-.88,43.59,43.59,0,0,0,10.16,1.82C341,99.22,349.17,96.18,349.17,96.18Z"/><path class="cls-2" d="M343.45,97s-7.58-.13-8.72-.11-5.49.42-5.49.42S337.19,98.91,343.45,97Z"/><polygon class="cls-2" points="265.79 87.6 267.32 90.17 266.15 101.72 267.93 101.48 269.78 101.27 272.18 99.82 269.88 97.22 269.83 90.67 265.79 87.6"/><path class="cls-7" d="M265.79,87.6l4,2.86-.31,7.09,1.93,1.22-1.51,2.42,6.93.08s-3.56-1.19-3.09-2.07-1.71-1.64-2.35-1.74-1-3-.81-3.25a33.2,33.2,0,0,0,.59-4.2Z"/></g></g></g></svg>