<svg xmlns="http://www.w3.org/2000/svg" xmlns:xlink="http://www.w3.org/1999/xlink" viewBox="0 0 313.85 2585.84"><defs><style>.cls-1{isolation:isolate;}.cls-2,.cls-3{fill:none;stroke:#a0743d;stroke-linecap:round;stroke-linejoin:round;stroke-width:5px;}.cls-3{stroke-dasharray:7.98 9.97;}.cls-12,.cls-15,.cls-17,.cls-4,.cls-6{fill:#6d3902;}.cls-5{fill:#b06511;}.cls-6{opacity:0.33;}.cls-7{fill:url(#linear-gradient);}.cls-8{fill:#e0ae38;}.cls-9{fill:#fffac5;}.cls-10{fill:#fffb96;}.cls-11{fill:#914900;}.cls-12{opacity:0.32;}.cls-13{fill:#f5e292;}.cls-14{fill:#fcd61b;}.cls-15{opacity:0.35;}.cls-16{fill:#faf8ca;}.cls-16,.cls-18{mix-blend-mode:overlay;}.cls-17{fill-rule:evenodd;}.cls-18,.cls-19{fill:#fff;}.cls-18{opacity:0.37;}.cls-20{fill:url(#linear-gradient-2);}.cls-21{fill:url(#linear-gradient-3);}.cls-22{fill:url(#linear-gradient-4);}.cls-23{fill:url(#linear-gradient-5);}</style><linearGradient id="linear-gradient" x1="97.28" y1="-10.02" x2="97.28" y2="77.03" gradientUnits="userSpaceOnUse"><stop offset="0" stop-color="#fde401"/><stop offset="1" stop-color="#ce7c14"/></linearGradient><linearGradient id="linear-gradient-2" x1="140.19" y1="516.66" x2="140.19" y2="603.7" xlink:href="#linear-gradient"/><linearGradient id="linear-gradient-3" x1="85.56" y1="1262.81" x2="85.56" y2="1349.85" xlink:href="#linear-gradient"/><linearGradient id="linear-gradient-4" x1="139.72" y1="1819.95" x2="139.72" y2="1906.99" xlink:href="#linear-gradient"/><linearGradient id="linear-gradient-5" x1="146.41" y1="2495.82" x2="146.41" y2="2582.86" xlink:href="#linear-gradient"/></defs><g class="cls-1"><g id="Слой_2" data-name="Слой 2"><g id="Слой_1-2" data-name="Слой 1"><path class="cls-2" d="M85.36,24.11s1.37.36,3.84,1.1"/><path class="cls-3" d="M98.68,28.28c29.38,10.18,98,39.71,109.48,96.56,20.47,101.59-290.42,65.21-183,184.73,54.93,61.13,202,161.75,84.81,314.07C39.48,715.18,86.63,764.5,184.26,836.8,498.5,1069.52,138,1086.41,82.23,1291c-56.17,206.19,343.23,129.13-17.17,709.7-116.32,187.39-1.2,421.16,79.55,541.44"/><path class="cls-2" d="M147.4,2546.32l2.26,3.3"/><path class="cls-4" d="M137.28,37.8V35.6h-.06a36.08,36.08,0,0,0-7-19.22l.09-.05-1.15-1.42A40.59,40.59,0,0,0,98.36,0H97.28A41,41,0,0,0,69.21,10.87,36.6,36.6,0,0,0,57.35,35.6h-.07v7.16c0,20.53,17.94,37.24,40,37.24s40-16.71,40-37.24v-5Zm-40,39c-20.2,0-36.63-15.25-36.63-34V37.25c.3-18.75,16.73-34,36.61-34h1a37.33,37.33,0,0,1,27.06,12.24h0l1.15,1.43a33,33,0,0,1,7.43,20.33v5.51C133.9,61.51,117.47,76.76,97.28,76.76Z"/><path class="cls-5" d="M135.39,37.22c-2-25.72-20.77-35.47-38.11-35.47-15.45,0-36.14,9.48-38.11,35.47H59v5.54c0,19.67,17.15,35.62,38.31,35.62s38.31-15.95,38.31-35.62V37.22Z"/><path class="cls-6" d="M97.35,76.78c-21.16,0-38.33-16.3-38.56-36.49,0,.42,0,.84,0,1.26,0,20.38,17.27,36.9,38.57,36.9s38.57-16.52,38.57-36.9c0-.42,0-.84,0-1.26C135.68,60.48,118.51,76.78,97.35,76.78Z"/><path class="cls-7" d="M132.4,39.06c0,18.68-15.73,33.82-35.12,33.82S62.16,57.74,62.16,39.06,77.88,5.23,97.28,5.23,132.4,20.37,132.4,39.06Z"/><path class="cls-8" d="M60.08,29s3.49-1.1,3.56-.43,3.26-6.4,6.43-9.23a28.52,28.52,0,0,0,4.22-4.39,6.18,6.18,0,0,0,5.41-1.6c2.35-2.32,3.44-3.61,3.44-3.61s13-4.5,21.57-2.33,18.14,9.71,18.14,9.71l2.52-1.51.33-2.69A38.82,38.82,0,0,0,99.79,2c-16.47-.57-23.38,5.5-28.74,9.47S60.08,29,60.08,29Z"/><path class="cls-9" d="M97.28,7.17c19.06,0,34.56,14.62,35.1,32.85,0-.32,0-.64,0-1,0-18.69-15.72-33.83-35.12-33.83S62.16,20.37,62.16,39.06c0,.32,0,.64,0,1C62.71,21.79,78.22,7.17,97.28,7.17Z"/><path class="cls-10" d="M97.28,71.45c-19.15,0-34.71-14.76-35.11-33.11,0,.24,0,.48,0,.72,0,18.68,15.72,33.82,35.12,33.82S132.4,57.74,132.4,39.06c0-.24,0-.48,0-.72C132,56.69,116.43,71.45,97.28,71.45Z"/><path class="cls-8" d="M82.55,7.83s1,2.86-2.81,5.27-5.79,0-5.79,0Z"/><path class="cls-5" d="M77.14,12.68H75.28l-1,.74s1.16,1.27,3.64.54A6.58,6.58,0,0,0,82,10.91C82.39,10.13,78.73,12.68,77.14,12.68Z"/><path class="cls-4" d="M89.84,5.36s.12,1.54-2,2.27-2.86-.7-2.86-.7Z"/><path class="cls-11" d="M86.56,7.11l-.92-.22-.59.24a1.77,1.77,0,0,0,1.73.71,3.4,3.4,0,0,0,2.41-1C89.47,6.48,87.34,7.3,86.56,7.11Z"/><path class="cls-5" d="M105.55,72.88s-.37-2.21,2.68-3.54,4.24.66,4.24.66Z"/><path class="cls-6" d="M108.84,69.42a10.46,10.46,0,0,0-1.53,1.6,1.14,1.14,0,0,1-.86.78,3.65,3.65,0,0,1-.82.16,4.43,4.43,0,0,1,2-2.39,6.47,6.47,0,0,1,2.41-.69Z"/><path class="cls-12" d="M128.32,53.28a22.46,22.46,0,0,1-2.43,2.17c-.86.66-1.74,1.27-2.64,1.85s-1.83,1.13-2.79,1.63a23,23,0,0,1-3,1.32,20.72,20.72,0,0,1,2.43-2.17c.85-.65,1.73-1.27,2.63-1.85s1.84-1.12,2.79-1.63A22.51,22.51,0,0,1,128.32,53.28Z"/><path class="cls-13" d="M128.6,53A36.76,36.76,0,0,1,122.09,58a40.36,40.36,0,0,1-4.9,2.23,26.55,26.55,0,0,0,5.7-2.06C125.37,56.85,128.6,53,128.6,53Z"/><path class="cls-4" d="M125.93,55s-3.88,2.14-4.46,2.49-2.65,1.8-2.65,1.8S123.33,57.81,125.93,55Z"/><path class="cls-4" d="M128,60.78l-2.72.53h-1.5s1,.17,1.39.26,1.58.13,1.69.44-.49,1.49-.23,1.32A19.27,19.27,0,0,0,128,60.78Z"/><path class="cls-14" d="M125.12,61.57l-1.47-.18s1.29.36,1.37.37a10.61,10.61,0,0,0,1.69.14A10.37,10.37,0,0,0,125.12,61.57Z"/><path class="cls-4" d="M108.91,77.38l1-4.53-.09-2.47s.42,1.64.63,2.24.37,2.56,1,2.7,3.16-1,2.82-.58A49.56,49.56,0,0,1,108.91,77.38Z"/><path class="cls-14" d="M110.42,72.62l-.6-2.37s1,2.06,1,2.17a13.62,13.62,0,0,1,.4,2.76A13,13,0,0,1,110.42,72.62Z"/><path class="cls-15" d="M107,77.31s1.74-3.4,1.85-3.75,1-3.31,1-3.31l.24,2.56-.54,3.69Z"/><path class="cls-4" d="M89.05,2.43c.06.08,1,2.67.79,2.93a50,50,0,0,1-4.79,1.77l-1.78-3.7S88.33,1.37,89.05,2.43Z"/><path class="cls-4" d="M114.62,3.68s.1,5.13.58,5.5,8.53,1.32,9,1.37S122.8,7.64,114.62,3.68Z"/><path class="cls-16" d="M122.8,10.24s-7.25-.92-7.42-1a4,4,0,0,1-.71-2.34c0-1,0-2,0-2s0,2.51,0,3.42a2.79,2.79,0,0,0,.81,1.77l7.8.5Z"/><path class="cls-5" d="M131.79,28a3.4,3.4,0,0,1-3.39-1.33c-1.16-1.79.91-2.74.91-2.74Z"/><path class="cls-5" d="M128.52,26.32a2.87,2.87,0,0,0,1.77.81s0,.09.06.4a2.6,2.6,0,0,1,.15.53,3.12,3.12,0,0,1-1.9-1,2.42,2.42,0,0,1-.56-1.45A8,8,0,0,0,128.52,26.32Z"/><path class="cls-5" d="M66.18,56.27s1.49-.85,3.12,1.22.46,3.51.46,3.51Z"/><path class="cls-6" d="M69.37,58a7.4,7.4,0,0,0-1.48-.8.84.84,0,0,1-.75-.48,3,3,0,0,1-.29-.61A3.12,3.12,0,0,1,69,57a5.38,5.38,0,0,1,1,1.73Z"/><path class="cls-4" d="M62.47,30.34,66.35,34l2.46,1.51s-1.84-.75-2.53-1-2.72-1.37-3.23-1-.77,2.93-1,2.39S62.47,30.34,62.47,30.34Z"/><path class="cls-14" d="M66.28,34.47l2.56,1.19s-2.48-.71-2.61-.76a22.09,22.09,0,0,1-2.91-1.48A19.16,19.16,0,0,1,66.28,34.47Z"/><path class="cls-5" d="M63.65,29.11s2.34,3.44,2.62,3.74,2.54,2.61,2.54,2.61L66.35,34,63,31.47Z"/><path class="cls-4" d="M59.42,28.7c.16-.25,3,1.64,3,1.64L62,35.89,58.49,37.2S57.65,31.47,59.42,28.7Z"/><path class="cls-4" d="M132.22,22.33s-3.28,1.84-3.46,2-.86,1.44-.63,1.81a13.31,13.31,0,0,0,.89,1.1s-.53-2-.26-2.13,1,.34,1.79.37S134.37,24,134.37,24Z"/><path class="cls-17" d="M124.43,40.37c-2.37,0-6.11.35-14.1,3,1.2-12.1,5.56-17.05,15-17.05a20,20,0,0,1,3.54.32,32.63,32.63,0,0,0-1.43-3.19c-.71-.07-1.43-.1-2.13-.1-5.13,0-10.59,1.82-16.38,3.75-6.49,2.17-13.22,4.41-20.29,4.41-7.51,0-14.95-2.31-22.74-7.06a30,30,0,0,0-1.16,2.8,52.55,52.55,0,0,0,12.79,5.66,15,15,0,0,0-6.78,11.71,57.43,57.43,0,0,1-7.9-4.43A32.45,32.45,0,0,0,63.25,44a51.8,51.8,0,0,0,13.26,6,14.6,14.6,0,0,0-6.36,9.16A31.63,31.63,0,0,0,72.8,62c.44-6.54,5-10.48,9.15-10.91a39.72,39.72,0,0,0,10.17.13C88.54,55.39,86.4,62,86.05,70c1,.32,2,.6,3,.84.4-14.17,5.93-20.24,11-21.18,3.23-.85,6.23-1.86,9.13-2.83l1.55-.52C106.08,52.61,106,62.8,106,70.56c1-.28,2.06-.61,3-1,0-12.47.38-26.22,15.4-26.22a18.39,18.39,0,0,1,6,1,29.85,29.85,0,0,0,.41-3A21.93,21.93,0,0,0,124.43,40.37ZM73.71,45.85C73.77,39,78.41,34.48,82.92,34a39.48,39.48,0,0,0,10.14.13c-2.86,3.33-4.81,8.24-5.66,14.31A38.54,38.54,0,0,1,73.71,45.85Zm33.47-1.45c-5.67,1.9-10.87,3.51-16.68,3.94C91.74,40.11,95.15,34.5,99.84,33c3.54-.87,7.54-2.21,10.76-3.29l1.11-.38C108.37,33.74,107.51,39.92,107.18,44.4Z"/><path class="cls-18" d="M123.4,28.23a73.13,73.13,0,0,1,7.45.39C126.29,15.05,113.06,5.23,97.44,5.23c-19.39,0-35.12,15.14-35.12,33.83a32.73,32.73,0,0,0,5.44,18.06C78.55,39.9,99.42,28.23,123.4,28.23Z"/><path class="cls-19" d="M101,8.8c-8.7.19.29,7.87,6.74,6.6S107.47,8.66,101,8.8Z"/><path class="cls-4" d="M180.19,564.48v-2.2h-.06a36.06,36.06,0,0,0-7-19.22l.09,0-1.15-1.43a40.59,40.59,0,0,0-30.83-14.89h-1.08a41,41,0,0,0-28.07,10.86,36.69,36.69,0,0,0-11.86,24.74h-.07v7.16c0,20.53,18,37.24,40,37.24s40-16.71,40-37.24v-5Zm-40,39c-20.19,0-36.62-15.25-36.62-34v-5.51c.3-18.76,16.72-34,36.61-34h1a37.31,37.31,0,0,1,27.06,12.24h0l1.14,1.43a33,33,0,0,1,7.43,20.33v5.51C176.82,588.19,160.39,603.44,140.19,603.44Z"/><path class="cls-5" d="M178.3,563.9c-2-25.73-20.77-35.47-38.11-35.47-15.45,0-36.13,9.47-38.11,35.47h-.2v5.54c0,19.67,17.15,35.62,38.31,35.62s38.31-15.95,38.31-35.62V563.9Z"/><path class="cls-6" d="M140.26,603.46c-21.16,0-38.33-16.3-38.56-36.49,0,.42,0,.84,0,1.26,0,20.38,17.27,36.9,38.57,36.9s38.57-16.52,38.57-36.9c0-.42,0-.84,0-1.26C178.59,587.16,161.42,603.46,140.26,603.46Z"/><path class="cls-20" d="M175.31,565.73c0,18.68-15.72,33.83-35.12,33.83s-35.12-15.15-35.12-33.83,15.72-33.82,35.12-33.82S175.31,547.05,175.31,565.73Z"/><path class="cls-8" d="M103,555.63s3.48-1.1,3.55-.43,3.26-6.41,6.43-9.23a27.86,27.86,0,0,0,4.22-4.39,6.2,6.2,0,0,0,5.42-1.6c2.35-2.32,3.44-3.62,3.44-3.62s13-4.49,21.57-2.32,18.14,9.7,18.14,9.7l2.52-1.5.33-2.69a38.87,38.87,0,0,0-25.92-10.93c-16.46-.56-23.38,5.51-28.74,9.48S103,555.63,103,555.63Z"/><path class="cls-9" d="M140.19,533.84c19.06,0,34.57,14.63,35.1,32.86,0-.32,0-.64,0-1,0-18.68-15.73-33.82-35.13-33.82s-35.12,15.14-35.12,33.82c0,.33,0,.65,0,1C105.63,548.47,121.13,533.84,140.19,533.84Z"/><path class="cls-10" d="M140.19,598.13c-19.15,0-34.71-14.76-35.1-33.11,0,.24,0,.47,0,.71,0,18.68,15.72,33.83,35.12,33.83s35.12-15.15,35.12-33.83c0-.24,0-.47,0-.71C174.9,583.37,159.34,598.13,140.19,598.13Z"/><path class="cls-8" d="M125.46,534.51s1,2.86-2.81,5.27-5.79,0-5.79,0Z"/><path class="cls-5" d="M120.06,539.36H118.2l-1,.73s1.16,1.28,3.64.55a6.51,6.51,0,0,0,4.08-3C125.3,536.81,121.65,539.36,120.06,539.36Z"/><path class="cls-4" d="M132.76,532s.12,1.53-2.06,2.27-2.86-.7-2.86-.7Z"/><path class="cls-11" d="M129.47,533.79l-.92-.23-.58.24a1.75,1.75,0,0,0,1.73.71,3.37,3.37,0,0,0,2.4-1C132.39,533.16,130.26,534,129.47,533.79Z"/><path class="cls-5" d="M148.46,599.55s-.37-2.2,2.69-3.53,4.23.66,4.23.66Z"/><path class="cls-6" d="M151.75,596.1a10.49,10.49,0,0,0-1.52,1.6,1.18,1.18,0,0,1-.86.78,3.77,3.77,0,0,1-.83.16,4.49,4.49,0,0,1,2-2.39,6.47,6.47,0,0,1,2.41-.69Z"/><path class="cls-12" d="M171.23,580a19.77,19.77,0,0,1-2.43,2.16c-.85.66-1.73,1.28-2.63,1.86s-1.84,1.13-2.79,1.63a21.25,21.25,0,0,1-3,1.31,22.48,22.48,0,0,1,2.43-2.16c.85-.66,1.73-1.27,2.64-1.85s1.83-1.13,2.79-1.63A23,23,0,0,1,171.23,580Z"/><path class="cls-13" d="M171.51,579.64a36.94,36.94,0,0,1-6.5,5.06,39.16,39.16,0,0,1-4.9,2.22,26,26,0,0,0,5.7-2.06C168.28,583.52,171.51,579.64,171.51,579.64Z"/><path class="cls-4" d="M168.84,581.7s-3.88,2.14-4.45,2.49-2.66,1.81-2.66,1.81S166.25,584.49,168.84,581.7Z"/><path class="cls-4" d="M170.87,587.46l-2.73.53h-1.5s1,.17,1.39.25,1.58.13,1.69.45-.49,1.49-.23,1.32A18.9,18.9,0,0,0,170.87,587.46Z"/><path class="cls-14" d="M168,588.24l-1.46-.17,1.36.37a12.06,12.06,0,0,0,1.7.14A10.75,10.75,0,0,0,168,588.24Z"/><path class="cls-4" d="M151.82,604.06l1-4.54-.09-2.46s.42,1.64.62,2.24.38,2.56,1,2.7,3.17-1,2.82-.59S151.82,604.06,151.82,604.06Z"/><path class="cls-14" d="M153.33,599.3l-.6-2.37s1,2.06,1,2.17a14.34,14.34,0,0,1,.39,2.76A13.22,13.22,0,0,1,153.33,599.3Z"/><path class="cls-15" d="M149.87,604s1.75-3.4,1.86-3.75,1-3.3,1-3.3l.25,2.56-.55,3.68Z"/><path class="cls-4" d="M132,529.11c.05.08,1,2.67.79,2.93S128,533.8,128,533.8l-1.78-3.7S131.24,528.05,132,529.11Z"/><path class="cls-4" d="M157.53,530.36s.1,5.13.59,5.49,8.52,1.33,8.95,1.38S165.72,534.32,157.53,530.36Z"/><path class="cls-16" d="M165.71,536.91s-7.25-.91-7.42-1a4.15,4.15,0,0,1-.71-2.35c0-1,0-2,0-2s0,2.51-.05,3.42a2.79,2.79,0,0,0,.81,1.77l7.8.5Z"/><path class="cls-5" d="M174.71,554.72a3.43,3.43,0,0,1-3.4-1.34c-1.15-1.78.92-2.73.92-2.73Z"/><path class="cls-5" d="M171.43,553a2.89,2.89,0,0,0,1.77.81s0,.09.07.4a2.6,2.6,0,0,1,.15.53,3.11,3.11,0,0,1-1.91-1,2.43,2.43,0,0,1-.55-1.44A7.37,7.37,0,0,0,171.43,553Z"/><path class="cls-5" d="M109.09,583s1.49-.86,3.12,1.22.47,3.51.47,3.51Z"/><path class="cls-6" d="M112.28,584.66a7.17,7.17,0,0,0-1.48-.79.84.84,0,0,1-.74-.48,3.51,3.51,0,0,1-.3-.61,3.1,3.1,0,0,1,2.14.94,5.4,5.4,0,0,1,1,1.72Z"/><path class="cls-4" d="M105.38,557l3.89,3.6,2.45,1.52s-1.83-.75-2.53-1-2.72-1.37-3.23-1-.76,2.92-1,2.39S105.38,557,105.38,557Z"/><path class="cls-14" d="M109.19,561.15l2.57,1.19s-2.48-.72-2.61-.77a20.51,20.51,0,0,1-2.92-1.48A20.35,20.35,0,0,1,109.19,561.15Z"/><path class="cls-5" d="M106.57,555.79s2.34,3.43,2.62,3.74,2.53,2.61,2.53,2.61l-2.45-1.52-3.35-2.47Z"/><path class="cls-4" d="M102.33,555.37c.16-.25,3,1.65,3,1.65l-.43,5.55-3.55,1.31S100.56,558.15,102.33,555.37Z"/><path class="cls-4" d="M175.13,549s-3.27,1.83-3.46,2-.86,1.45-.63,1.81a13.69,13.69,0,0,0,.89,1.1s-.52-2-.26-2.12,1,.33,1.79.37,3.83-1.45,3.83-1.45Z"/><path class="cls-4" d="M158.37,557.15c-2.37-.79-5.64-1-10.28,2.56l-1.05.81,1.25-.46c4.9-1.84,7-2.29,11.29-.13.09.06.36.21.8.43l.12.06.11.05.09,0,.86.41.4.17v0c3.87,1.55,7.13.89,11.14-2.23l1-.81-1.42.53c-2.88,1.08-5.59,2.1-8.85,1a17.28,17.28,0,0,1-2.57-1.15l-.18-.09Z"/><path class="cls-4" d="M122,574.3c3.5,1.14,6.61.36,10.31-2.55l1-.8-1.23.46c-4.4,1.65-6.9,2.41-11.3.12a1.22,1.22,0,0,0-.26-.14l-.32-.16-.16-.09-.65-.34-.76-.35c-2.94-1.2-6.35-1.76-11.36,2.17l-1,.81,1.22-.46c5.3-2,7.38-2.2,11.78.12Z"/><path class="cls-4" d="M162.31,568.06a43.81,43.81,0,0,0,5.75-3.3l1.2-.8-1.38.44-1.1.36c-3.57,1.16-8,2.6-12.82,2.66h0c-5.47.07-9.37-1.66-13.14-3.33-1.19-.53-2.41-1.07-3.66-1.54-6.06-2.11-11.43-2.21-16.86-.31l-2.21.87a44.11,44.11,0,0,0-6.39,3.59l-1.2.8,1.37-.44,1.15-.37a65.05,65.05,0,0,1,6.62-1.89l.22,0a29.66,29.66,0,0,1,5.94-.71c5.46-.08,9.37,1.65,13.15,3.33,1.18.52,2.41,1.07,3.64,1.53,6.28,2.2,11.85,2.23,17.52.09Z"/><path class="cls-18" d="M166.31,554.91a70.55,70.55,0,0,1,7.46.39c-4.57-13.58-17.8-23.39-33.41-23.39-19.4,0-35.12,15.14-35.12,33.82a32.73,32.73,0,0,0,5.43,18.07C121.46,566.58,142.33,554.91,166.31,554.91Z"/><path class="cls-19" d="M143.9,535.48c-8.71.18.29,7.86,6.74,6.6S150.39,535.34,143.9,535.48Z"/><path class="cls-4" d="M125.56,1310.63v-2.2h-.06a36,36,0,0,0-7-19.22l.09,0-1.15-1.43a40.62,40.62,0,0,0-30.84-14.89H85.56a41,41,0,0,0-28.07,10.86,36.62,36.62,0,0,0-11.86,24.74h-.07v7.16c0,20.53,17.94,37.24,40,37.24s40-16.71,40-37.24v-5Zm-40,39c-20.2,0-36.63-15.26-36.63-34v-5.52c.3-18.75,16.73-34,36.61-34h1a37.29,37.29,0,0,1,27.06,12.24h0l1.15,1.42a33,33,0,0,1,7.43,20.33v5.52C122.18,1334.33,105.75,1349.59,85.56,1349.59Z"/><path class="cls-5" d="M123.66,1310.05c-2-25.73-20.76-35.47-38.1-35.47-15.45,0-36.14,9.47-38.11,35.47h-.21v5.54c0,19.67,17.16,35.62,38.32,35.62s38.31-16,38.31-35.62v-5.54Z"/><path class="cls-6" d="M85.63,1349.61c-21.16,0-38.33-16.3-38.56-36.49,0,.41,0,.83,0,1.26,0,20.38,17.27,36.9,38.57,36.9s38.57-16.52,38.57-36.9c0-.42,0-.84,0-1.26C124,1333.31,106.79,1349.61,85.63,1349.61Z"/><path class="cls-21" d="M120.68,1311.88c0,18.68-15.73,33.83-35.12,33.83s-35.12-15.15-35.12-33.83,15.72-33.82,35.12-33.82S120.68,1293.2,120.68,1311.88Z"/><path class="cls-8" d="M48.36,1301.78s3.49-1.1,3.56-.44,3.26-6.4,6.43-9.23a28,28,0,0,0,4.22-4.39,6.16,6.16,0,0,0,5.41-1.59c2.35-2.32,3.44-3.62,3.44-3.62s13-4.49,21.57-2.32,18.14,9.7,18.14,9.7l2.52-1.5.33-2.69a38.86,38.86,0,0,0-25.91-10.93c-16.47-.56-23.38,5.51-28.74,9.48S48.36,1301.78,48.36,1301.78Z"/><path class="cls-9" d="M85.56,1280c19.06,0,34.56,14.63,35.09,32.86,0-.32,0-.64,0-1,0-18.68-15.72-33.82-35.12-33.82s-35.12,15.14-35.12,33.82c0,.33,0,.65,0,1C51,1294.62,66.5,1280,85.56,1280Z"/><path class="cls-10" d="M85.56,1344.28c-19.15,0-34.71-14.76-35.11-33.11,0,.24,0,.47,0,.71,0,18.68,15.72,33.83,35.12,33.83s35.12-15.15,35.12-33.83c0-.24,0-.47,0-.71C120.26,1329.52,104.71,1344.28,85.56,1344.28Z"/><path class="cls-8" d="M70.82,1280.66s1,2.86-2.8,5.27-5.79,0-5.79,0Z"/><path class="cls-5" d="M65.42,1285.51H63.56l-1,.73s1.16,1.28,3.64.55a6.58,6.58,0,0,0,4.08-3C70.67,1283,67,1285.51,65.42,1285.51Z"/><path class="cls-4" d="M78.12,1278.19s.12,1.53-2.05,2.27-2.86-.7-2.86-.7Z"/><path class="cls-11" d="M74.84,1279.94l-.92-.23-.59.24a1.75,1.75,0,0,0,1.73.71,3.4,3.4,0,0,0,2.41-1C77.75,1279.31,75.62,1280.13,74.84,1279.94Z"/><path class="cls-5" d="M93.83,1345.7s-.37-2.2,2.68-3.53,4.24.66,4.24.66Z"/><path class="cls-6" d="M97.12,1342.25a10.46,10.46,0,0,0-1.53,1.6,1.14,1.14,0,0,1-.86.78,3.23,3.23,0,0,1-.82.15,4.43,4.43,0,0,1,2-2.38,6.47,6.47,0,0,1,2.41-.69Z"/><path class="cls-12" d="M116.6,1326.11a21.35,21.35,0,0,1-2.43,2.16q-1.29,1-2.64,1.86c-.9.58-1.83,1.12-2.79,1.63a21.64,21.64,0,0,1-3,1.31,21.57,21.57,0,0,1,2.43-2.16c.85-.66,1.73-1.28,2.63-1.85s1.84-1.13,2.79-1.63A22.51,22.51,0,0,1,116.6,1326.11Z"/><path class="cls-13" d="M116.88,1325.79a36.81,36.81,0,0,1-6.51,5,38.5,38.5,0,0,1-4.9,2.23,26,26,0,0,0,5.7-2.06C113.65,1329.67,116.88,1325.79,116.88,1325.79Z"/><path class="cls-4" d="M114.21,1327.85s-3.88,2.14-4.46,2.49-2.65,1.81-2.65,1.81S111.61,1330.64,114.21,1327.85Z"/><path class="cls-4" d="M116.23,1333.61l-2.72.53H112s1,.17,1.38.25,1.58.13,1.7.45-.49,1.49-.23,1.32A19.91,19.91,0,0,0,116.23,1333.61Z"/><path class="cls-14" d="M113.39,1334.39l-1.46-.17,1.36.37a12.18,12.18,0,0,0,1.7.14A9.41,9.41,0,0,0,113.39,1334.39Z"/><path class="cls-4" d="M97.19,1350.21l1-4.54-.09-2.46s.42,1.64.63,2.24.37,2.56,1,2.7,3.16-1,2.82-.59S97.19,1350.21,97.19,1350.21Z"/><path class="cls-14" d="M98.7,1345.45l-.6-2.37s1,2.06,1,2.17a13.62,13.62,0,0,1,.4,2.76A13.22,13.22,0,0,1,98.7,1345.45Z"/><path class="cls-15" d="M95.24,1350.13s1.74-3.4,1.85-3.75l1-3.3.24,2.56-.54,3.68Z"/><path class="cls-4" d="M77.33,1275.25c.06.09,1,2.67.79,2.94s-4.79,1.76-4.79,1.76l-1.78-3.7S76.61,1274.2,77.33,1275.25Z"/><path class="cls-4" d="M102.9,1276.51s.1,5.13.58,5.49,8.53,1.33,9,1.38S111.08,1280.47,102.9,1276.51Z"/><path class="cls-16" d="M111.08,1283.06s-7.25-.91-7.42-1a4.07,4.07,0,0,1-.71-2.35c0-1,0-2,0-2s0,2.51,0,3.42a2.8,2.8,0,0,0,.8,1.77l7.81.5Z"/><path class="cls-5" d="M120.07,1300.87a3.42,3.42,0,0,1-3.39-1.34c-1.16-1.79.91-2.73.91-2.73Z"/><path class="cls-5" d="M116.8,1299.14a2.84,2.84,0,0,0,1.77.82s0,.09.06.4a2.63,2.63,0,0,1,.15.52,3.06,3.06,0,0,1-1.9-1,2.41,2.41,0,0,1-.56-1.44A5.42,5.42,0,0,0,116.8,1299.14Z"/><path class="cls-5" d="M54.46,1329.1s1.49-.86,3.12,1.22.46,3.51.46,3.51Z"/><path class="cls-6" d="M57.65,1330.81a7.44,7.44,0,0,0-1.48-.79.85.85,0,0,1-.75-.48,3,3,0,0,1-.29-.61,3.12,3.12,0,0,1,2.14.94,5.23,5.23,0,0,1,1,1.72Z"/><path class="cls-4" d="M50.75,1303.17l3.88,3.6,2.46,1.52s-1.84-.75-2.54-1-2.71-1.37-3.22-1-.77,2.93-1,2.4S50.75,1303.17,50.75,1303.17Z"/><path class="cls-14" d="M54.55,1307.3l2.57,1.19s-2.48-.72-2.61-.77a20.93,20.93,0,0,1-2.91-1.48A20.25,20.25,0,0,1,54.55,1307.3Z"/><path class="cls-5" d="M51.93,1301.94s2.34,3.43,2.62,3.74,2.54,2.61,2.54,2.61l-2.46-1.52-3.34-2.47Z"/><path class="cls-4" d="M47.7,1301.52c.16-.25,3,1.65,3,1.65l-.43,5.55L46.77,1310S45.93,1304.3,47.7,1301.52Z"/><path class="cls-4" d="M120.5,1295.15s-3.28,1.84-3.47,2-.85,1.45-.62,1.81a11.74,11.74,0,0,0,.89,1.1s-.53-2-.27-2.12,1,.33,1.8.36,3.82-1.44,3.82-1.44Z"/><path class="cls-17" d="M110.65,1332.23a29.69,29.69,0,0,1-3.22,3.5c-3.82-.7-6-4-8.33-7.56-2.77-4.22-5.63-8.58-11.6-9.17a22.42,22.42,0,0,1-7.13-1.39,19.23,19.23,0,0,1,.54,4.81,57.31,57.31,0,0,1-.47,6.29,52.32,52.32,0,0,0-.46,6c0,3.09.52,7,4.43,10.1a33.16,33.16,0,0,1-5.12-.41,15.88,15.88,0,0,1-2.76-9.65,56,56,0,0,1,.48-6.36,56.26,56.26,0,0,0,.44-5.89c0-3.29-.71-5.73-2.22-7.68a20.57,20.57,0,0,1-4.24-4.19c-1.68,3.88-5.44,6.92-8.76,9.62-3.49,2.83-6.5,5.27-6.54,8a31.27,31.27,0,0,1-2.07-4.33c1.51-2.28,4-4.27,6.59-6.38,4.07-3.27,8.27-6.66,8.27-11.12a8.47,8.47,0,0,0-.2-1.73,14.42,14.42,0,0,1-.27-2.75,12.25,12.25,0,0,1,.22-2.33,32.29,32.29,0,0,1-7.51,1.75c-3.43.52-6.48,1-8.14,2.84a29.62,29.62,0,0,1,1.79-5,36.8,36.8,0,0,1,5.94-1.25c4.37-.65,8.49-1.27,10.56-4.81l.17-.29,0,0a17,17,0,0,1,7.14-5.84,24,24,0,0,0-7.54-1.51,17.08,17.08,0,0,0-6.41,1.31,33,33,0,0,1,8.28-4.6,36.75,36.75,0,0,1,7.75,1.91,59.39,59.39,0,0,0,5.92,1.68,16.63,16.63,0,0,1,11.12,5.83c-1.28-8.32-8.6-10.95-15.63-11.51.93-.08,1.88-.12,2.83-.12A33.76,33.76,0,0,1,96,1282a15.86,15.86,0,0,1,5,12.16,19.7,19.7,0,0,1-.47,4.37l-1.63,6.29-1.71-6.26a13,13,0,0,0-9.22-9c-.8-.1-1.63-.25-2.44-.42-.3,0-.64,0-1,0a13,13,0,0,0-10.71,5.75c-.16.27-.34.54-.53.8a12.6,12.6,0,0,0-1.87,6.34c0,6.63,6.86,12.84,15,13.59.54,0,1,0,1.51.09h.4c10.64,0,18.66-7.27,18.66-16.91a19.19,19.19,0,0,0-8.75-15.82,32.75,32.75,0,0,1,10.41,7.32,21.23,21.23,0,0,1,1.81,8.48c0,9.18-6.23,16.9-15.58,19.45,3.16,2.17,5.23,5.33,7.07,8.13,2.17,3.32,4.05,6.18,7,6.18A6,6,0,0,0,110.65,1332.23Z"/><path class="cls-18" d="M111.68,1301.06a73.14,73.14,0,0,1,7.45.38c-4.56-13.57-17.79-23.38-33.41-23.38-19.39,0-35.12,15.14-35.12,33.82A32.74,32.74,0,0,0,56,1330C66.83,1312.73,87.7,1301.06,111.68,1301.06Z"/><path class="cls-19" d="M89.26,1281.63c-8.7.18.29,7.86,6.74,6.6S95.75,1281.49,89.26,1281.63Z"/><path class="cls-4" d="M179.72,1867.77v-2.2h-.06a36,36,0,0,0-7-19.22l.09,0-1.15-1.43A40.62,40.62,0,0,0,140.8,1830h-1.08a41,41,0,0,0-28.07,10.86,36.62,36.62,0,0,0-11.86,24.74h-.07v7.16c0,20.53,18,37.24,40,37.24s40-16.71,40-37.24v-5Zm-40,39c-20.19,0-36.62-15.26-36.62-34v-5.52c.3-18.75,16.73-34,36.61-34h1a37.28,37.28,0,0,1,27.06,12.24h0l1.15,1.42a33,33,0,0,1,7.43,20.33v5.52C176.34,1891.47,159.91,1906.73,139.72,1906.73Z"/><path class="cls-5" d="M177.83,1867.19c-2-25.73-20.77-35.47-38.11-35.47-15.45,0-36.14,9.47-38.11,35.47h-.2v5.54c0,19.67,17.15,35.62,38.31,35.62S178,1892.4,178,1872.73v-5.54Z"/><path class="cls-6" d="M139.79,1906.75c-21.16,0-38.33-16.3-38.56-36.49,0,.41,0,.83,0,1.26,0,20.38,17.27,36.9,38.57,36.9s38.57-16.52,38.57-36.9c0-.42,0-.84,0-1.26C178.12,1890.45,161,1906.75,139.79,1906.75Z"/><path class="cls-22" d="M174.84,1869c0,18.68-15.72,33.83-35.12,33.83S104.6,1887.7,104.6,1869s15.72-33.82,35.12-33.82S174.84,1850.34,174.84,1869Z"/><path class="cls-8" d="M102.53,1858.92s3.48-1.1,3.55-.44,3.26-6.4,6.43-9.23a27.31,27.31,0,0,0,4.22-4.39,6.18,6.18,0,0,0,5.42-1.59c2.35-2.32,3.43-3.62,3.43-3.62s13-4.49,21.57-2.32,18.15,9.7,18.15,9.7l2.51-1.5.34-2.69a38.9,38.9,0,0,0-25.92-10.93c-16.47-.56-23.38,5.51-28.74,9.48S102.53,1858.92,102.53,1858.92Z"/><path class="cls-9" d="M139.72,1837.13c19.06,0,34.56,14.63,35.1,32.86,0-.32,0-.64,0-1,0-18.68-15.72-33.82-35.12-33.82S104.6,1850.34,104.6,1869c0,.33,0,.65,0,1C105.16,1851.76,120.66,1837.13,139.72,1837.13Z"/><path class="cls-10" d="M139.72,1901.42c-19.15,0-34.71-14.76-35.1-33.11,0,.24,0,.47,0,.71,0,18.68,15.72,33.83,35.12,33.83s35.12-15.15,35.12-33.83c0-.24,0-.47,0-.71C174.43,1886.66,158.87,1901.42,139.72,1901.42Z"/><path class="cls-8" d="M125,1837.8s1,2.86-2.81,5.27-5.79,0-5.79,0Z"/><path class="cls-5" d="M119.59,1842.65h-1.87l-1,.73s1.16,1.28,3.64.55a6.58,6.58,0,0,0,4.08-3C124.83,1840.1,121.18,1842.65,119.59,1842.65Z"/><path class="cls-4" d="M132.28,1835.33s.12,1.53-2.05,2.27-2.86-.7-2.86-.7Z"/><path class="cls-11" d="M129,1837.08l-.92-.23-.59.24a1.78,1.78,0,0,0,1.74.71,3.37,3.37,0,0,0,2.4-1C131.91,1836.45,129.79,1837.27,129,1837.08Z"/><path class="cls-5" d="M148,1902.84s-.37-2.2,2.68-3.53,4.24.66,4.24.66Z"/><path class="cls-6" d="M151.28,1899.39a10.46,10.46,0,0,0-1.53,1.6,1.14,1.14,0,0,1-.86.78,3.23,3.23,0,0,1-.82.15,4.43,4.43,0,0,1,2-2.38,6.47,6.47,0,0,1,2.41-.69Z"/><path class="cls-12" d="M170.76,1883.25a21.35,21.35,0,0,1-2.43,2.16q-1.28,1-2.64,1.86c-.9.58-1.83,1.12-2.79,1.63a21.64,21.64,0,0,1-3,1.31,21.57,21.57,0,0,1,2.43-2.16c.85-.66,1.73-1.28,2.63-1.85s1.84-1.13,2.79-1.63A22.51,22.51,0,0,1,170.76,1883.25Z"/><path class="cls-13" d="M171,1882.93a36.58,36.58,0,0,1-6.5,5,38.5,38.5,0,0,1-4.9,2.23,26,26,0,0,0,5.69-2.06C167.81,1886.81,171,1882.93,171,1882.93Z"/><path class="cls-4" d="M168.37,1885s-3.88,2.14-4.46,2.49-2.65,1.81-2.65,1.81S165.77,1887.78,168.37,1885Z"/><path class="cls-4" d="M170.39,1890.75l-2.72.53h-1.5s1,.17,1.39.25,1.58.13,1.69.45-.49,1.49-.23,1.32A18.73,18.73,0,0,0,170.39,1890.75Z"/><path class="cls-14" d="M167.56,1891.53l-1.46-.17,1.36.37a12,12,0,0,0,1.69.14A9.29,9.29,0,0,0,167.56,1891.53Z"/><path class="cls-4" d="M151.35,1907.35l1-4.54-.09-2.46s.42,1.64.63,2.24.37,2.56,1,2.7,3.16-1,2.82-.59S151.35,1907.35,151.35,1907.35Z"/><path class="cls-14" d="M152.86,1902.59l-.6-2.37s1,2.06,1,2.17a13.62,13.62,0,0,1,.4,2.76A13.22,13.22,0,0,1,152.86,1902.59Z"/><path class="cls-15" d="M149.4,1907.27s1.75-3.4,1.86-3.75,1-3.3,1-3.3l.25,2.56-.55,3.68Z"/><path class="cls-4" d="M131.5,1832.39c.05.09,1,2.67.78,2.94s-4.79,1.76-4.79,1.76l-1.78-3.7S130.77,1831.34,131.5,1832.39Z"/><path class="cls-4" d="M157.06,1833.65s.1,5.13.59,5.49,8.52,1.33,8.94,1.38S165.25,1837.61,157.06,1833.65Z"/><path class="cls-16" d="M165.24,1840.2s-7.25-.91-7.42-1a4.15,4.15,0,0,1-.71-2.35c0-1,0-2,0-2s0,2.51-.05,3.42a2.79,2.79,0,0,0,.81,1.77l7.8.5Z"/><path class="cls-5" d="M174.23,1858a3.42,3.42,0,0,1-3.39-1.34c-1.16-1.79.91-2.73.91-2.73Z"/><path class="cls-5" d="M171,1856.28a2.87,2.87,0,0,0,1.77.82s0,.09.07.4a3.92,3.92,0,0,1,.15.52,3.08,3.08,0,0,1-1.91-1,2.35,2.35,0,0,1-.55-1.44A6.32,6.32,0,0,0,171,1856.28Z"/><path class="cls-5" d="M108.62,1886.24s1.49-.86,3.12,1.22.46,3.51.46,3.51Z"/><path class="cls-6" d="M111.81,1888a7.17,7.17,0,0,0-1.48-.79.84.84,0,0,1-.74-.48,3.51,3.51,0,0,1-.3-.61,3.12,3.12,0,0,1,2.14.94,5.4,5.4,0,0,1,1,1.72Z"/><path class="cls-4" d="M104.91,1860.31l3.88,3.6,2.46,1.52s-1.84-.75-2.53-1-2.72-1.37-3.23-1-.77,2.93-1,2.4S104.91,1860.31,104.91,1860.31Z"/><path class="cls-14" d="M108.72,1864.44l2.56,1.19s-2.47-.72-2.6-.77a20.51,20.51,0,0,1-2.92-1.48A20.35,20.35,0,0,1,108.72,1864.44Z"/><path class="cls-5" d="M106.09,1859.08s2.35,3.43,2.62,3.74,2.54,2.61,2.54,2.61l-2.46-1.52-3.34-2.47Z"/><path class="cls-4" d="M101.86,1858.66c.16-.25,3,1.65,3,1.65l-.43,5.55-3.55,1.31S100.09,1861.44,101.86,1858.66Z"/><path class="cls-4" d="M174.66,1852.29s-3.28,1.84-3.46,2-.86,1.45-.63,1.81a11.74,11.74,0,0,0,.89,1.1s-.52-2-.26-2.12,1,.33,1.79.36,3.82-1.44,3.82-1.44Z"/><path class="cls-17" d="M174.84,1869.61l-32-21.85-38,21.47a32,32,0,0,0,.42,3.56L142.06,1852l.88,1.77c-11.77,6.64-25.41,14.37-37.2,21,.06.24.11.47.18.7,11.81-6.68,25.51-14.44,37.32-21.11L144,1856c-11.91,6.72-25.73,14.55-37.6,21.26.07.23.14.45.22.66,11.88-6.72,25.75-14.55,37.68-21.31l.78,1.59-37.84,21.4.27.64,20.53-11.61-.19.19-4.71,4.6-14.9,8.43.31.62,12.68-7.18-4.9,4.8-6.93,3.92c.11.2.23.4.35.6l4.68-2.65-3.92,3.84a30.72,30.72,0,0,0,2,2.69l16.44-16.1,12.94,14.52-8.74,12.83-.17.25-.43.64c1.19.24,2.41.43,3.65.56,4-5.91,8.08-11.86,11.83-17.36l1.79,1-10.63,16.5c.23,0,.45,0,.68,0H140l10.4-16.18,1.55.89-9.79,15.21.87-.07,9.52-14.79,1.55.88L145.36,1901l.93-.16,8.45-13.13,1.55.88-7.53,11.71,1-.26,7.14-11.1,1.55.89-6,9.31c.37-.13.74-.28,1.1-.43l5.5-8.54,1.54.89-4,6.22c.44-.23.87-.48,1.29-.73l3.32-5.15,1.54.89-1.1,1.72a36.19,36.19,0,0,0,4.14-3.78l-16.86-9.67-4-11.48,6.08-2.5,1.63-.68-.77-1.56-4.75-9.65,27.28,18.64A31.62,31.62,0,0,0,174.84,1869.61Zm-44.52-.71-.92-1,16-9,.78,1.58-15.58,8.81Zm4.09,4.58,7.08-4,.59,1.69-6.47,3.66Zm1.67,1.88,6.24-3.53.59,1.69-5.63,3.19Zm1.67,1.87,5.39-3,.59,1.69-4.78,2.71Zm1.67,1.88,4.55-2.58.59,1.69-3.94,2.23Zm6.26,2.29-1.83,2.68-1.1-1.23,2.87-1.62Zm-.29-.83-3.1,1.75-1.2-1.34,3.7-2.1Zm2.65-16.4-5.9,2.43-1.45.6.51,1.46.06.16-7.32,4.14-1.2-1.35,14.83-8.38Zm-.77-1.56-15,8.48-1.2-1.35,15.41-8.71Z"/><path class="cls-18" d="M165.84,1858.2a73.49,73.49,0,0,1,7.46.38c-4.57-13.57-17.8-23.38-33.41-23.38-19.4,0-35.13,15.14-35.13,33.82a32.74,32.74,0,0,0,5.44,18.07C121,1869.87,141.86,1858.2,165.84,1858.2Z"/><path class="cls-19" d="M143.42,1838.77c-8.7.18.3,7.86,6.74,6.6S149.91,1838.63,143.42,1838.77Z"/><path class="cls-4" d="M186.41,2543.64v-2.2h-.06a36,36,0,0,0-7-19.22l.09,0-1.15-1.43a40.62,40.62,0,0,0-30.83-14.89h-1.08a41,41,0,0,0-28.07,10.86,36.62,36.62,0,0,0-11.86,24.74h-.07v7.16c0,20.53,17.94,37.24,40,37.24s40-16.71,40-37.24v-5Zm-40,39c-20.2,0-36.63-15.26-36.63-34v-5.52c.3-18.75,16.73-34,36.61-34h1a37.28,37.28,0,0,1,27.06,12.24h0l1.15,1.43a33,33,0,0,1,7.43,20.32v5.52C183,2567.34,166.6,2582.6,146.41,2582.6Z"/><path class="cls-5" d="M184.52,2543.06c-2-25.73-20.77-35.47-38.11-35.47-15.45,0-36.14,9.47-38.11,35.47h-.2v5.54c0,19.67,17.15,35.62,38.31,35.62s38.31-15.95,38.31-35.62v-5.54Z"/><path class="cls-6" d="M146.48,2582.62c-21.16,0-38.33-16.3-38.56-36.49,0,.41,0,.83,0,1.26,0,20.38,17.27,36.9,38.57,36.9s38.57-16.52,38.57-36.9c0-.42,0-.84,0-1.26C184.81,2566.32,167.64,2582.62,146.48,2582.62Z"/><path class="cls-23" d="M181.53,2544.89c0,18.68-15.72,33.83-35.12,33.83s-35.12-15.15-35.12-33.83,15.72-33.82,35.12-33.82S181.53,2526.21,181.53,2544.89Z"/><path class="cls-8" d="M109.21,2534.79s3.49-1.1,3.56-.44,3.26-6.4,6.43-9.23a28,28,0,0,0,4.22-4.39,6.16,6.16,0,0,0,5.41-1.59c2.36-2.32,3.44-3.62,3.44-3.62s13-4.49,21.57-2.32,18.15,9.7,18.15,9.7l2.51-1.5.33-2.69a38.86,38.86,0,0,0-25.91-10.93c-16.47-.56-23.38,5.51-28.74,9.48S109.21,2534.79,109.21,2534.79Z"/><path class="cls-9" d="M146.41,2513c19.06,0,34.56,14.63,35.1,32.86,0-.32,0-.64,0-1,0-18.68-15.72-33.82-35.12-33.82s-35.12,15.14-35.12,33.82c0,.33,0,.65,0,1C111.85,2527.63,127.35,2513,146.41,2513Z"/><path class="cls-10" d="M146.41,2577.29c-19.15,0-34.71-14.76-35.1-33.11,0,.24,0,.47,0,.71,0,18.68,15.72,33.83,35.12,33.83s35.12-15.15,35.12-33.83c0-.24,0-.47,0-.71C181.12,2562.53,165.56,2577.29,146.41,2577.29Z"/><path class="cls-8" d="M131.68,2513.67s1,2.86-2.81,5.27-5.79,0-5.79,0Z"/><path class="cls-5" d="M126.27,2518.52h-1.86l-1,.73s1.16,1.28,3.64.55a6.58,6.58,0,0,0,4.08-3.05C131.52,2516,127.87,2518.52,126.27,2518.52Z"/><path class="cls-4" d="M139,2511.2s.12,1.53-2.05,2.27-2.86-.7-2.86-.7Z"/><path class="cls-11" d="M135.69,2513l-.92-.23-.59.24a1.78,1.78,0,0,0,1.74.71,3.4,3.4,0,0,0,2.4-1C138.6,2512.32,136.47,2513.14,135.69,2513Z"/><path class="cls-5" d="M154.68,2578.71s-.37-2.2,2.68-3.53,4.24.66,4.24.66Z"/><path class="cls-6" d="M158,2575.26a10.46,10.46,0,0,0-1.53,1.6,1.14,1.14,0,0,1-.86.78,3.23,3.23,0,0,1-.82.15,4.43,4.43,0,0,1,2-2.38,6.47,6.47,0,0,1,2.41-.69Z"/><path class="cls-12" d="M177.45,2559.12a21.35,21.35,0,0,1-2.43,2.16c-.86.66-1.73,1.28-2.64,1.86s-1.83,1.12-2.79,1.63a21.64,21.64,0,0,1-3,1.31,21.57,21.57,0,0,1,2.43-2.16c.85-.66,1.73-1.28,2.63-1.85s1.84-1.13,2.79-1.63A22.51,22.51,0,0,1,177.45,2559.12Z"/><path class="cls-13" d="M177.73,2558.8a36.58,36.58,0,0,1-6.5,5,38.93,38.93,0,0,1-4.91,2.23A26,26,0,0,0,172,2564C174.5,2562.68,177.73,2558.8,177.73,2558.8Z"/><path class="cls-4" d="M175.06,2560.86s-3.88,2.14-4.46,2.49-2.65,1.81-2.65,1.81S172.46,2563.65,175.06,2560.86Z"/><path class="cls-4" d="M177.08,2566.62l-2.72.53h-1.5s1,.17,1.39.25,1.58.13,1.69.45-.49,1.49-.23,1.32A19.91,19.91,0,0,0,177.08,2566.62Z"/><path class="cls-14" d="M174.25,2567.4l-1.46-.17s1.28.36,1.36.37a12,12,0,0,0,1.69.14A10.35,10.35,0,0,0,174.25,2567.4Z"/><path class="cls-4" d="M158,2583.22l1-4.54-.09-2.46s.42,1.64.63,2.24.37,2.56,1,2.7,3.16-1,2.82-.59S158,2583.22,158,2583.22Z"/><path class="cls-14" d="M159.55,2578.46l-.6-2.37s1,2.06,1,2.17a13.62,13.62,0,0,1,.4,2.76A13.22,13.22,0,0,1,159.55,2578.46Z"/><path class="cls-15" d="M156.09,2583.14s1.74-3.4,1.85-3.75,1-3.3,1-3.3l.24,2.56-.54,3.68Z"/><path class="cls-4" d="M138.18,2508.26c.06.09,1,2.67.79,2.94s-4.79,1.76-4.79,1.76l-1.78-3.7S137.46,2507.21,138.18,2508.26Z"/><path class="cls-4" d="M163.75,2509.52s.1,5.13.59,5.49,8.52,1.33,8.94,1.38S171.93,2513.48,163.75,2509.52Z"/><path class="cls-16" d="M171.93,2516.07s-7.25-.91-7.42-1a4.15,4.15,0,0,1-.71-2.35c0-1,0-2,0-2s0,2.51-.05,3.42a2.79,2.79,0,0,0,.81,1.77l7.8.5Z"/><path class="cls-5" d="M180.92,2533.88a3.42,3.42,0,0,1-3.39-1.34c-1.16-1.79.91-2.73.91-2.73Z"/><path class="cls-5" d="M177.65,2532.15a2.84,2.84,0,0,0,1.77.82s0,.09.07.4a3,3,0,0,1,.14.52,3.06,3.06,0,0,1-1.9-1,2.41,2.41,0,0,1-.56-1.44A6.8,6.8,0,0,0,177.65,2532.15Z"/><path class="cls-5" d="M115.31,2562.11s1.49-.86,3.12,1.22.46,3.51.46,3.51Z"/><path class="cls-6" d="M118.5,2563.82A7.44,7.44,0,0,0,117,2563a.85.85,0,0,1-.75-.48,3.85,3.85,0,0,1-.29-.61,3.12,3.12,0,0,1,2.14.94,5.4,5.4,0,0,1,1,1.72Z"/><path class="cls-4" d="M111.6,2536.18l3.88,3.6,2.46,1.52s-1.84-.75-2.53-1-2.72-1.37-3.23-1-.77,2.93-1,2.4S111.6,2536.18,111.6,2536.18Z"/><path class="cls-14" d="M115.41,2540.31l2.56,1.19-2.61-.77a20.93,20.93,0,0,1-2.91-1.48A20.35,20.35,0,0,1,115.41,2540.31Z"/><path class="cls-5" d="M112.78,2535s2.34,3.43,2.62,3.74,2.54,2.61,2.54,2.61l-2.46-1.52-3.34-2.47Z"/><path class="cls-4" d="M108.55,2534.53c.16-.25,3,1.65,3,1.65l-.43,5.55-3.55,1.31S106.78,2537.31,108.55,2534.53Z"/><path class="cls-4" d="M181.35,2528.16s-3.28,1.84-3.46,2-.86,1.45-.63,1.81a11.74,11.74,0,0,0,.89,1.1s-.53-2-.26-2.12,1,.33,1.79.36,3.82-1.44,3.82-1.44Z"/><path class="cls-4" d="M167.76,2520c-8.08,1.1-20.33-3.3-23.79,6.29,9.67-2.36,21.15,0,27.19,8.88a24.72,24.72,0,0,1,.78,27.66,20.48,20.48,0,0,0-2.77,5.81,32.11,32.11,0,0,0-1.41-48.64Z"/><path class="cls-4" d="M161.49,2529.8c-10.87-5.32-21.14,3-25.37,12.43-5.44-3.55-1.81-11.84,1.21-16a23.36,23.36,0,0,1,16.84-8.76c4-.21,6.74-.37,8.3-.83v-.26a33.42,33.42,0,0,0-12.81-3.9v1.39c-8.71,4.08-17.16,8.81-20.18,17.69-2.42,8.28-.61,17.16,6.64,22.48,4.83,3,11.48,3,15.71-1.18,4.83-5.92-3-7.1-5.44-11.24-1.21-3.55,1.81-7.1,5.44-8.29,11.48-2.36,19.93,8.88,18.73,19.53-1.21,12.43-12.09,17.16-20.9,23v1.39a33.08,33.08,0,0,0,12.81-3.9v-.26a15.26,15.26,0,0,1,1.83-2.69C176.6,2559.39,177.8,2537.5,161.49,2529.8Z"/><path class="cls-4" d="M168.14,2557c1.21-5.32,1.21-11.24-2.42-16-3-3-8.46-7.1-10.87-3-1.81,3,3.62,6.51,2.41,11.24-1.81,7.69-11.47,11.24-18.72,8.28a19,19,0,0,1-11.48-16c-1.81-12.43,7.85-20.71,16.07-27.75v-1.39a33.43,33.43,0,0,0-12.81,3.91c0,1.09,0,2.28-.06,3.58-5.62,11-10.45,24.61-.78,35.85a25.51,25.51,0,0,0,25.37,7.1c-1.21,7.69-14.5,7.1-21,5.94-2.56-.46-3.45,0-3.55,1v3.47a33.6,33.6,0,0,0,12.8,3.9v-1.39C152.43,2570.63,164.51,2568.86,168.14,2557Z"/><path class="cls-4" d="M131.29,2562.94c-9.06-9.47-11.48-23.08-7.49-35.57v-6.32a32.08,32.08,0,0,0,0,47.69v-6.33C126.46,2560.57,128.87,2563.53,131.29,2562.94Z"/><path class="cls-18" d="M172.53,2534.07a70.69,70.69,0,0,1,7.46.39c-4.57-13.58-17.8-23.39-33.41-23.39-19.4,0-35.13,15.14-35.13,33.82a32.74,32.74,0,0,0,5.44,18.07C127.68,2545.74,148.55,2534.07,172.53,2534.07Z"/><path class="cls-19" d="M150.11,2514.64c-8.7.18.29,7.86,6.74,6.6S156.6,2514.5,150.11,2514.64Z"/></g></g></g></svg>