<svg xmlns="http://www.w3.org/2000/svg" xmlns:xlink="http://www.w3.org/1999/xlink" viewBox="0 0 386.76 2565.55"><defs><style>.cls-1{isolation:isolate;}.cls-2,.cls-3{fill:none;stroke:#a0743d;stroke-linecap:round;stroke-linejoin:round;stroke-width:5px;}.cls-3{stroke-dasharray:7.98 9.97;}.cls-12,.cls-15,.cls-17,.cls-4,.cls-6{fill:#6d3902;}.cls-5{fill:#ad6512;}.cls-6{opacity:0.33;}.cls-7{fill:url(#linear-gradient);}.cls-8{fill:#deac39;}.cls-9{fill:#fcf8c3;}.cls-10{fill:#fff994;}.cls-11{fill:#8f4900;}.cls-12{opacity:0.32;}.cls-13{fill:#f3e090;}.cls-14{fill:#fad41d;}.cls-15{opacity:0.35;}.cls-16{fill:#f8f6c8;}.cls-16,.cls-18{mix-blend-mode:overlay;}.cls-17{fill-rule:evenodd;}.cls-18,.cls-19{fill:#fff;}.cls-18{opacity:0.37;}.cls-20{fill:url(#linear-gradient-2);}.cls-21{fill:url(#linear-gradient-3);}.cls-22{fill:url(#linear-gradient-4);}.cls-23{fill:url(#linear-gradient-5);}</style><linearGradient id="linear-gradient" x1="64.73" y1="-10.18" x2="64.73" y2="78.27" gradientUnits="userSpaceOnUse"><stop offset="0" stop-color="#fbe207"/><stop offset="1" stop-color="#cc7c15"/></linearGradient><linearGradient id="linear-gradient-2" x1="280.95" y1="620.18" x2="280.95" y2="706.98" xlink:href="#linear-gradient"/><linearGradient id="linear-gradient-3" x1="53.75" y1="1237.11" x2="53.75" y2="1323.91" xlink:href="#linear-gradient"/><linearGradient id="linear-gradient-4" x1="347.69" y1="1865.25" x2="347.69" y2="1952.05" xlink:href="#linear-gradient"/><linearGradient id="linear-gradient-5" x1="157.01" y1="2475.78" x2="157.01" y2="2562.58" xlink:href="#linear-gradient"/></defs><g class="cls-1"><g id="Слой_2" data-name="Слой 2"><g id="Слой_1-2" data-name="Слой 1"><path class="cls-2" d="M43.53,33.74s1.43,0,4,0"/><path class="cls-3" d="M57.5,34.12c35.36,2.16,126.33,15.7,135.8,97.67,11.91,103-274,69.79-166.63,189.31C81.6,382.23,441.15,455.55,323.92,607.88c-70.46,91.54-217.62,275-120,347.33,314.24,232.72-89.23,139.13-146.55,304.93-69.84,202,507.51,544.28,229.65,804.92C15,2320.2,72.64,2408.23,151,2522.4"/><path class="cls-2" d="M153.86,2526.51l2.27,3.3"/><path class="cls-4" d="M104.54,38.41V36.18h-.06a37,37,0,0,0-6.93-19.53l.09-.06-1.14-1.44A40.14,40.14,0,0,0,65.8,0H64.73A40.32,40.32,0,0,0,36.79,11,37.52,37.52,0,0,0,25,36.18h-.07v7.27c0,20.87,17.86,37.84,39.82,37.84s39.81-17,39.81-37.84v-5ZM64.73,78c-20.1,0-36.46-15.5-36.46-34.55v-5.6c.3-19.06,16.65-34.56,36.44-34.56h1A36.84,36.84,0,0,1,92.65,15.74h0l1.14,1.45a34,34,0,0,1,7.39,20.66v5.6C101.18,62.5,84.83,78,64.73,78Z"/><path class="cls-5" d="M102.65,37.82c-2-26.14-20.67-36-37.92-36-15.38,0-36,9.63-37.94,36h-.2v5.63c0,20,17.07,36.19,38.14,36.19s38.13-16.2,38.13-36.19V37.82Z"/><path class="cls-6" d="M64.8,78C43.73,78,26.64,61.46,26.42,40.94c0,.42,0,.85,0,1.28,0,20.71,17.19,37.5,38.4,37.5s38.39-16.79,38.39-37.5c0-.43,0-.85,0-1.28C103,61.46,85.86,78,64.8,78Z"/><path class="cls-7" d="M99.68,39.69c0,19-15.65,34.37-34.95,34.37s-35-15.39-35-34.37,15.65-34.38,35-34.38S99.68,20.7,99.68,39.69Z"/><path class="cls-8" d="M27.7,29.42s3.47-1.12,3.54-.44,3.25-6.51,6.4-9.38a28.13,28.13,0,0,0,4.2-4.46,6,6,0,0,0,5.39-1.62c2.34-2.36,3.42-3.68,3.42-3.68s13-4.56,21.47-2.36,18.06,9.86,18.06,9.86l2.51-1.52L93,13.08A38.36,38.36,0,0,0,67.22,2C50.83,1.4,44,7.57,38.62,11.6S27.7,29.42,27.7,29.42Z"/><path class="cls-9" d="M64.73,7.28c19,0,34.4,14.86,34.93,33.39,0-.33,0-.65,0-1,0-19-15.65-34.38-34.95-34.38s-35,15.39-35,34.38c0,.33,0,.65,0,1C30.32,22.14,45.75,7.28,64.73,7.28Z"/><path class="cls-10" d="M64.73,72.6c-19.06,0-34.55-15-34.94-33.64,0,.24,0,.48,0,.73,0,19,15.65,34.37,35,34.37s35-15.39,35-34.37c0-.25,0-.49,0-.73C99.27,57.61,83.79,72.6,64.73,72.6Z"/><path class="cls-8" d="M50.06,8s1,2.9-2.79,5.36-5.76,0-5.76,0Z"/><path class="cls-5" d="M44.69,12.89H42.83l-1,.74s1.16,1.3,3.63.56a6.55,6.55,0,0,0,4.05-3.1C49.9,10.29,46.27,12.89,44.69,12.89Z"/><path class="cls-4" d="M57.32,5.45s.12,1.56-2,2.31S52.43,7,52.43,7Z"/><path class="cls-11" d="M54.06,7.22,53.14,7l-.58.24A1.74,1.74,0,0,0,54.28,8a3.32,3.32,0,0,0,2.39-1C57,6.59,54.84,7.42,54.06,7.22Z"/><path class="cls-5" d="M73,74.05s-.37-2.24,2.67-3.59,4.21.67,4.21.67Z"/><path class="cls-6" d="M76.23,70.54a10.48,10.48,0,0,0-1.52,1.63,1.14,1.14,0,0,1-.85.79,3.75,3.75,0,0,1-.82.16A4.54,4.54,0,0,1,75,70.69a6.3,6.3,0,0,1,2.39-.7Z"/><path class="cls-12" d="M95.62,54.14a21.75,21.75,0,0,1-2.42,2.2c-.85.67-1.72,1.3-2.62,1.89s-1.83,1.14-2.78,1.65a21.65,21.65,0,0,1-3,1.34A21.75,21.75,0,0,1,87.24,59c.85-.67,1.72-1.3,2.62-1.88s1.83-1.15,2.78-1.66A22.92,22.92,0,0,1,95.62,54.14Z"/><path class="cls-13" d="M95.9,53.82A37.11,37.11,0,0,1,89.43,59a39.39,39.39,0,0,1-4.88,2.27,25.8,25.8,0,0,0,5.67-2.1C92.69,57.76,95.9,53.82,95.9,53.82Z"/><path class="cls-4" d="M93.24,55.91s-3.86,2.18-4.43,2.53-2.65,1.84-2.65,1.84S90.66,58.74,93.24,55.91Z"/><path class="cls-4" d="M95.26,61.76l-2.71.54h-1.5s1,.17,1.38.26,1.58.13,1.69.45-.49,1.52-.23,1.35A20.9,20.9,0,0,0,95.26,61.76Z"/><path class="cls-14" d="M92.43,62.56,91,62.38l1.35.38A12.16,12.16,0,0,0,94,62.9,10.35,10.35,0,0,0,92.43,62.56Z"/><path class="cls-4" d="M76.3,78.63l1-4.61-.09-2.5s.42,1.66.62,2.27.38,2.61,1,2.74,3.15-1,2.81-.59S76.3,78.63,76.3,78.63Z"/><path class="cls-14" d="M77.8,73.79l-.6-2.4s1,2.08,1,2.2a14.75,14.75,0,0,1,.39,2.8A13.4,13.4,0,0,1,77.8,73.79Z"/><path class="cls-15" d="M74.36,78.55s1.74-3.45,1.85-3.81,1-3.35,1-3.35L77.45,74l-.54,3.75Z"/><path class="cls-4" d="M56.54,2.47c.06.08,1,2.71.78,3a50.12,50.12,0,0,1-4.76,1.79L50.79,3.48S55.82,1.39,56.54,2.47Z"/><path class="cls-4" d="M82,3.74s.1,5.21.59,5.58,8.48,1.35,8.9,1.4S90.13,7.77,82,3.74Z"/><path class="cls-16" d="M90.13,10.4s-7.22-.93-7.39-1A4.15,4.15,0,0,1,82,7c0-1,0-2.08,0-2.08S82,7.49,82,8.42a2.89,2.89,0,0,0,.81,1.79l7.77.51Z"/><path class="cls-5" d="M99.08,28.49a3.37,3.37,0,0,1-3.38-1.35c-1.15-1.82.91-2.78.91-2.78Z"/><path class="cls-5" d="M95.82,26.74a2.81,2.81,0,0,0,1.76.83s0,.09.07.41a3.78,3.78,0,0,1,.15.53,3.07,3.07,0,0,1-1.9-1,2.48,2.48,0,0,1-.55-1.46A7.37,7.37,0,0,0,95.82,26.74Z"/><path class="cls-5" d="M33.77,57.18s1.49-.87,3.11,1.24.46,3.57.46,3.57Z"/><path class="cls-6" d="M37,58.92a7.57,7.57,0,0,0-1.48-.81.82.82,0,0,1-.74-.48,3.15,3.15,0,0,1-.29-.62,3,3,0,0,1,2.13,1,5.64,5.64,0,0,1,1,1.75Z"/><path class="cls-4" d="M30.08,30.83l3.86,3.66L36.39,36s-1.83-.76-2.52-1-2.71-1.4-3.22-1-.76,3-1,2.43S30.08,30.83,30.08,30.83Z"/><path class="cls-14" d="M33.87,35l2.55,1.2s-2.46-.72-2.59-.77A21.11,21.11,0,0,1,30.92,34,20.42,20.42,0,0,1,33.87,35Z"/><path class="cls-5" d="M31.26,29.58s2.33,3.49,2.6,3.8S36.39,36,36.39,36l-2.45-1.54L30.61,32Z"/><path class="cls-4" d="M27,29.16c.16-.26,3,1.67,3,1.67l-.43,5.64L26.12,37.8S25.28,32,27,29.16Z"/><path class="cls-4" d="M99.5,22.69s-3.26,1.87-3.44,2-.86,1.47-.63,1.84.89,1.12.89,1.12-.52-2.05-.26-2.16,1,.34,1.78.37,3.81-1.47,3.81-1.47Z"/><path class="cls-17" d="M91.76,41c-2.37,0-6.09.36-14.05,3,1.2-12.29,5.54-17.33,14.89-17.33a18.93,18.93,0,0,1,3.53.33,32.28,32.28,0,0,0-1.42-3.25c-.71-.06-1.42-.1-2.12-.1-5.11,0-10.55,1.85-16.3,3.81C69.82,29.71,63.13,32,56.09,32c-7.48,0-14.88-2.35-22.63-7.18-.43.93-.82,1.88-1.16,2.85A51.44,51.44,0,0,0,45,33.41a15.34,15.34,0,0,0-6.74,11.9,56.85,56.85,0,0,1-7.86-4.51,33.64,33.64,0,0,0,.44,3.91,51.34,51.34,0,0,0,13.19,6,14.8,14.8,0,0,0-6.32,9.31A31.74,31.74,0,0,0,40.36,63c.44-6.64,4.94-10.65,9.11-11.09a37.7,37.7,0,0,0,10.13.13C56,56.28,53.9,63,53.55,71.16c1,.33,2,.62,3,.86.41-14.4,5.9-20.56,11-21.52,3.22-.86,6.21-1.89,9.09-2.88l1.54-.53c-4.67,6.37-4.8,16.73-4.8,24.6a28.23,28.23,0,0,0,3-1c0-12.67.38-26.64,15.33-26.64a18,18,0,0,1,6,1c.19-1,.32-2,.42-3.08A21.52,21.52,0,0,0,91.76,41ZM41.27,46.59c.06-7,4.68-11.55,9.16-12a39.17,39.17,0,0,0,10.1.13c-2.85,3.38-4.79,8.37-5.63,14.54A37.81,37.81,0,0,1,41.27,46.59Zm33.31-1.47c-5.64,1.93-10.82,3.56-16.6,4,1.24-8.37,4.63-14.06,9.29-15.64,3.52-.88,7.51-2.24,10.71-3.35l1.11-.37C75.76,34.28,74.91,40.57,74.58,45.12Z"/><path class="cls-18" d="M90.72,28.69a70,70,0,0,1,7.43.39A34.93,34.93,0,0,0,64.89,5.31c-19.31,0-35,15.39-35,34.38A33.77,33.77,0,0,0,35.34,58C46.08,40.55,66.86,28.69,90.72,28.69Z"/><path class="cls-19" d="M68.41,8.94c-8.66.19.29,8,6.71,6.71S74.87,8.8,68.41,8.94Z"/><path class="cls-4" d="M320,667.87v-2.2H320a36.33,36.33,0,0,0-6.8-19.16l.09-.06L312.12,645A39.41,39.41,0,0,0,282,630.18H281A39.61,39.61,0,0,0,253.53,641a36.87,36.87,0,0,0-11.59,24.67h-.06v7.14c0,20.48,17.52,37.13,39.07,37.13S320,693.29,320,672.81v-4.94ZM281,706.71c-19.73,0-35.78-15.21-35.78-33.9v-5.5c.29-18.7,16.34-33.91,35.76-33.91h1a36.14,36.14,0,0,1,26.43,12.2h0l1.12,1.42a33.37,33.37,0,0,1,7.26,20.27v5.5C316.72,691.5,300.67,706.71,281,706.71Z"/><path class="cls-5" d="M318.17,667.29c-1.95-25.66-20.29-35.37-37.22-35.37-15.09,0-35.3,9.44-37.23,35.37h-.2v5.52c0,19.62,16.76,35.52,37.43,35.52s37.42-15.9,37.42-35.52v-5.52Z"/><path class="cls-6" d="M281,706.74c-20.67,0-37.44-16.26-37.67-36.39,0,.41,0,.83,0,1.26,0,20.32,16.87,36.79,37.68,36.79s37.67-16.47,37.67-36.79c0-.43,0-.85,0-1.26C318.46,690.48,301.68,706.74,281,706.74Z"/><path class="cls-20" d="M315.25,669.11c0,18.63-15.36,33.74-34.3,33.74s-34.31-15.11-34.31-33.74S262,635.38,281,635.38,315.25,650.49,315.25,669.11Z"/><path class="cls-8" d="M244.62,659s3.4-1.1,3.47-.43,3.18-6.39,6.28-9.21a27.7,27.7,0,0,0,4.12-4.38,5.92,5.92,0,0,0,5.29-1.59c2.3-2.31,3.36-3.6,3.36-3.6s12.73-4.48,21.07-2.32,17.72,9.68,17.72,9.68l2.46-1.5.32-2.68a37.61,37.61,0,0,0-25.31-10.9c-16.08-.57-22.84,5.49-28.07,9.45S244.62,659,244.62,659Z"/><path class="cls-9" d="M281,637.32c18.61,0,33.76,14.58,34.28,32.76,0-.32,0-.64,0-1,0-18.62-15.36-33.73-34.31-33.73s-34.31,15.11-34.31,33.73c0,.33,0,.65,0,1C247.19,651.9,262.33,637.32,281,637.32Z"/><path class="cls-10" d="M281,701.42c-18.71,0-33.91-14.72-34.29-33,0,.24,0,.48,0,.71,0,18.63,15.36,33.74,34.31,33.74s34.3-15.11,34.3-33.74c0-.23,0-.47,0-.71C314.85,686.7,299.65,701.42,281,701.42Z"/><path class="cls-8" d="M266.56,638s.95,2.85-2.75,5.26-5.65,0-5.65,0Z"/><path class="cls-5" d="M261.28,642.82h-1.82l-1,.73s1.13,1.27,3.56.54a6.41,6.41,0,0,0,4-3C266.4,640.27,262.83,642.82,261.28,642.82Z"/><path class="cls-4" d="M273.68,635.52s.12,1.53-2,2.26-2.8-.7-2.8-.7Z"/><path class="cls-11" d="M270.48,637.26l-.9-.23-.57.24a1.7,1.7,0,0,0,1.69.71,3.24,3.24,0,0,0,2.34-1C273.32,636.63,271.24,637.45,270.48,637.26Z"/><path class="cls-5" d="M289,702.84s-.36-2.2,2.63-3.53,4.13.67,4.13.67Z"/><path class="cls-6" d="M292.24,699.4a9.93,9.93,0,0,0-1.49,1.59,1.15,1.15,0,0,1-.84.78,3.2,3.2,0,0,1-.81.15,4.42,4.42,0,0,1,1.92-2.38,6.24,6.24,0,0,1,2.35-.68Z"/><path class="cls-12" d="M311.26,683.3a20.09,20.09,0,0,1-2.37,2.16c-.83.66-1.69,1.27-2.57,1.85s-1.79,1.12-2.73,1.62a20.82,20.82,0,0,1-2.92,1.32,19.26,19.26,0,0,1,2.37-2.16c.83-.66,1.69-1.27,2.58-1.85s1.79-1.12,2.72-1.62A22.63,22.63,0,0,1,311.26,683.3Z"/><path class="cls-13" d="M311.54,683a36.17,36.17,0,0,1-6.35,5,39.4,39.4,0,0,1-4.79,2.23,24.91,24.91,0,0,0,5.57-2.06C308.39,686.86,311.54,683,311.54,683Z"/><path class="cls-4" d="M308.93,685s-3.79,2.14-4.35,2.48-2.59,1.81-2.59,1.81A19.33,19.33,0,0,0,308.93,685Z"/><path class="cls-4" d="M310.91,690.78l-2.66.53h-1.47s1,.17,1.36.25,1.54.13,1.65.45-.48,1.48-.22,1.32A19.38,19.38,0,0,0,310.91,690.78Z"/><path class="cls-14" d="M308.14,691.56l-1.43-.17,1.33.37a11.5,11.5,0,0,0,1.66.14A9.14,9.14,0,0,0,308.14,691.56Z"/><path class="cls-4" d="M292.31,707.33l.95-4.52-.09-2.46s.41,1.64.61,2.23.37,2.56,1,2.7,3.09-1,2.75-.59S292.31,707.33,292.31,707.33Z"/><path class="cls-14" d="M293.78,702.58l-.59-2.35s1,2,1,2.16a14.12,14.12,0,0,1,.38,2.75A13.93,13.93,0,0,1,293.78,702.58Z"/><path class="cls-15" d="M290.4,707.26s1.71-3.39,1.82-3.74,1-3.29,1-3.29l.25,2.54-.54,3.68Z"/><path class="cls-4" d="M272.91,632.59c.06.08,1,2.66.77,2.93s-4.67,1.75-4.67,1.75l-1.74-3.69S272.21,631.53,272.91,632.59Z"/><path class="cls-4" d="M297.88,633.84s.1,5.12.58,5.48,8.32,1.32,8.74,1.37S305.88,637.79,297.88,633.84Z"/><path class="cls-16" d="M305.88,640.37s-7.08-.9-7.25-1a4,4,0,0,1-.69-2.33c0-1,0-2,0-2s0,2.51-.06,3.42a2.85,2.85,0,0,0,.79,1.76l7.63.5Z"/><path class="cls-5" d="M314.66,658.13a3.29,3.29,0,0,1-3.31-1.33c-1.13-1.78.89-2.72.89-2.72Z"/><path class="cls-5" d="M311.46,656.41a2.78,2.78,0,0,0,1.73.81s-.05.09.07.4a3,3,0,0,1,.14.53,3,3,0,0,1-1.86-1,2.45,2.45,0,0,1-.54-1.44A7,7,0,0,0,311.46,656.41Z"/><path class="cls-5" d="M250.57,686.28s1.46-.85,3.05,1.22.45,3.5.45,3.5Z"/><path class="cls-6" d="M253.69,688a7.07,7.07,0,0,0-1.45-.79.82.82,0,0,1-.73-.48,3.2,3.2,0,0,1-.28-.61,3,3,0,0,1,2.09.94,5.37,5.37,0,0,1,1,1.72Z"/><path class="cls-4" d="M246.94,660.42l3.8,3.6,2.4,1.51s-1.8-.75-2.48-1-2.65-1.37-3.15-1-.75,2.92-1,2.39S246.94,660.42,246.94,660.42Z"/><path class="cls-14" d="M250.66,664.55l2.51,1.18s-2.42-.71-2.55-.76a20.14,20.14,0,0,1-2.84-1.48A18.44,18.44,0,0,1,250.66,664.55Z"/><path class="cls-5" d="M248.1,659.2s2.29,3.42,2.56,3.73,2.48,2.6,2.48,2.6l-2.4-1.51-3.27-2.47Z"/><path class="cls-4" d="M244,658.78c.16-.25,3,1.64,3,1.64l-.42,5.54-3.46,1.3S242.24,661.55,244,658.78Z"/><path class="cls-4" d="M315.07,652.43s-3.19,1.84-3.38,2-.84,1.44-.61,1.8a12.64,12.64,0,0,0,.87,1.1s-.51-2-.26-2.12,1,.33,1.76.36,3.73-1.43,3.73-1.43Z"/><path class="cls-4" d="M298.7,660.56c-2.31-.8-5.51-1-10,2.55l-1,.81,1.22-.47c4.8-1.83,6.85-2.28,11-.12q.14.09.78.42l.11.06.11.06.09,0,.83.42.4.16h0c3.78,1.54,7,.88,10.89-2.23l1-.81-1.39.53c-2.81,1.08-5.46,2.09-8.65,1a17.11,17.11,0,0,1-2.5-1.14l-.18-.09Z"/><path class="cls-4" d="M263.15,677.65c3.41,1.14,6.45.37,10.07-2.53l1-.8-1.2.45c-4.3,1.65-6.74,2.41-11,.13a1.63,1.63,0,0,0-.25-.15l-.31-.16-.16-.08a7.14,7.14,0,0,0-.63-.34c-.23-.11-.47-.23-.75-.35-2.87-1.2-6.2-1.76-11.09,2.16l-1,.81,1.2-.46c5.17-2,7.2-2.2,11.5.12Z"/><path class="cls-4" d="M302.55,671.43a43.74,43.74,0,0,0,5.62-3.28l1.17-.8-1.34.44-1.08.35c-3.49,1.16-7.82,2.6-12.53,2.65h0c-5.33.08-9.15-1.65-12.83-3.31-1.16-.53-2.36-1.07-3.57-1.54-5.93-2.1-11.17-2.21-16.47-.31l-2.16.87a42.13,42.13,0,0,0-6.25,3.58l-1.17.8,1.35-.44,1.11-.37a63.66,63.66,0,0,1,6.47-1.88l.22-.05a29.75,29.75,0,0,1,5.8-.71c5.33-.07,9.15,1.66,12.84,3.33,1.16.52,2.35,1.06,3.56,1.53,6.13,2.19,11.58,2.22,17.11.08Z"/><path class="cls-18" d="M306.46,658.32a69.67,69.67,0,0,1,7.28.39,34.25,34.25,0,0,0-32.63-23.33c-18.95,0-34.31,15.11-34.31,33.73a33.13,33.13,0,0,0,5.31,18C262.65,670,283,658.32,306.46,658.32Z"/><path class="cls-19" d="M284.56,638.94c-8.49.19.29,7.85,6.59,6.59S290.91,638.81,284.56,638.94Z"/><path class="cls-4" d="M92.83,1284.79v-2.19h-.06a36.33,36.33,0,0,0-6.8-19.16l.09-.06L84.93,1262a39.38,39.38,0,0,0-30.12-14.85H53.76a39.61,39.61,0,0,0-27.42,10.83,36.87,36.87,0,0,0-11.59,24.67h-.07v7.14c0,20.47,17.53,37.13,39.08,37.13s39.07-16.66,39.07-37.13v-5Zm-39.07,38.85c-19.73,0-35.78-15.21-35.78-33.9v-5.5c.29-18.7,16.34-33.91,35.76-33.91h1a36.11,36.11,0,0,1,26.44,12.2h0l1.12,1.42a33.29,33.29,0,0,1,7.25,20.27v5.5C89.53,1308.43,73.48,1323.64,53.76,1323.64Z"/><path class="cls-5" d="M91,1284.22c-2-25.66-20.29-35.37-37.23-35.37-15.09,0-35.29,9.44-37.22,35.37h-.2v5.52c0,19.61,16.76,35.52,37.42,35.52s37.43-15.91,37.43-35.52v-5.52Z"/><path class="cls-6" d="M53.82,1323.66c-20.67,0-37.44-16.25-37.66-36.39,0,.42,0,.84,0,1.27,0,20.32,16.87,36.79,37.67,36.79s37.68-16.47,37.68-36.79c0-.43,0-.85,0-1.26C91.26,1307.41,74.49,1323.66,53.82,1323.66Z"/><path class="cls-21" d="M88.06,1286c0,18.63-15.36,33.73-34.31,33.73s-34.3-15.1-34.3-33.73,15.36-33.73,34.3-33.73S88.06,1267.41,88.06,1286Z"/><path class="cls-8" d="M17.42,1276s3.41-1.1,3.47-.44,3.19-6.38,6.28-9.2A27.56,27.56,0,0,0,31.3,1262a5.92,5.92,0,0,0,5.29-1.59c2.29-2.31,3.36-3.6,3.36-3.6s12.73-4.48,21.07-2.32,17.72,9.68,17.72,9.68l2.46-1.5.32-2.68A37.61,37.61,0,0,0,56.21,1249c-16.09-.57-22.84,5.49-28.08,9.45S17.42,1276,17.42,1276Z"/><path class="cls-9" d="M53.76,1254.24c18.61,0,33.76,14.59,34.28,32.77,0-.32,0-.64,0-1,0-18.63-15.36-33.73-34.3-33.73s-34.31,15.1-34.31,33.73c0,.33,0,.65,0,1C20,1268.83,35.14,1254.24,53.76,1254.24Z"/><path class="cls-10" d="M53.75,1318.35c-18.7,0-33.9-14.72-34.28-33,0,.24,0,.47,0,.71,0,18.63,15.36,33.73,34.3,33.73s34.31-15.1,34.31-33.73c0-.24,0-.47,0-.71C87.66,1303.63,72.46,1318.35,53.75,1318.35Z"/><path class="cls-8" d="M39.36,1254.9s1,2.86-2.74,5.26-5.65,0-5.65,0Z"/><path class="cls-5" d="M34.09,1259.74H32.27l-1,.73s1.13,1.28,3.55.55a6.47,6.47,0,0,0,4-3C39.21,1257.2,35.64,1259.74,34.09,1259.74Z"/><path class="cls-4" d="M46.49,1252.44s.12,1.53-2,2.27-2.79-.7-2.79-.7Z"/><path class="cls-11" d="M43.28,1254.19l-.9-.23-.57.24a1.74,1.74,0,0,0,1.69.71,3.27,3.27,0,0,0,2.35-1C46.13,1253.56,44.05,1254.38,43.28,1254.19Z"/><path class="cls-5" d="M61.83,1319.77s-.36-2.2,2.62-3.53,4.14.66,4.14.66Z"/><path class="cls-6" d="M65,1316.33a10.41,10.41,0,0,0-1.49,1.59,1.12,1.12,0,0,1-.83.78,3.9,3.9,0,0,1-.81.15,4.42,4.42,0,0,1,1.92-2.38,6,6,0,0,1,2.35-.68Z"/><path class="cls-12" d="M84.07,1300.23a21,21,0,0,1-2.37,2.16c-.83.66-1.69,1.27-2.57,1.85s-1.79,1.12-2.73,1.62a20.82,20.82,0,0,1-2.92,1.32,19.26,19.26,0,0,1,2.37-2.16c.83-.66,1.69-1.27,2.57-1.85s1.79-1.12,2.73-1.62A20.82,20.82,0,0,1,84.07,1300.23Z"/><path class="cls-13" d="M84.35,1299.91a36.17,36.17,0,0,1-6.35,5,39.4,39.4,0,0,1-4.79,2.23,25.49,25.49,0,0,0,5.56-2.06C81.19,1303.78,84.35,1299.91,84.35,1299.91Z"/><path class="cls-4" d="M81.74,1302s-3.79,2.13-4.35,2.48-2.6,1.81-2.6,1.81A19.41,19.41,0,0,0,81.74,1302Z"/><path class="cls-4" d="M83.72,1307.71l-2.66.53H79.59s1,.17,1.36.25,1.54.13,1.65.44-.48,1.49-.23,1.32A18.88,18.88,0,0,0,83.72,1307.71Z"/><path class="cls-14" d="M81,1308.49l-1.43-.17,1.33.37a10.23,10.23,0,0,0,1.66.13A10.22,10.22,0,0,0,81,1308.49Z"/><path class="cls-4" d="M65.12,1324.26l.95-4.52-.09-2.46s.41,1.64.61,2.23.36,2.56,1,2.7,3.09-1,2.75-.59S65.12,1324.26,65.12,1324.26Z"/><path class="cls-14" d="M66.59,1319.51l-.59-2.36s1,2,1,2.17a13.41,13.41,0,0,1,.39,2.75A13.2,13.2,0,0,1,66.59,1319.51Z"/><path class="cls-15" d="M63.21,1324.19s1.7-3.39,1.81-3.74,1-3.3,1-3.3l.24,2.55-.53,3.68Z"/><path class="cls-4" d="M45.72,1249.52c.06.08,1,2.66.77,2.92a48.44,48.44,0,0,1-4.68,1.76l-1.74-3.69S45,1248.46,45.72,1249.52Z"/><path class="cls-4" d="M70.69,1250.77s.1,5.11.58,5.48,8.32,1.32,8.73,1.37S78.69,1254.72,70.69,1250.77Z"/><path class="cls-16" d="M78.68,1257.3s-7.08-.91-7.25-1a4.19,4.19,0,0,1-.69-2.34c0-1,0-2,0-2s0,2.51,0,3.42a2.8,2.8,0,0,0,.79,1.76l7.62.5Z"/><path class="cls-5" d="M87.47,1275.06a3.31,3.31,0,0,1-3.32-1.33C83,1272,85,1271,85,1271Z"/><path class="cls-5" d="M84.27,1273.34a2.78,2.78,0,0,0,1.73.81s0,.09.06.4a2.6,2.6,0,0,1,.15.53,3,3,0,0,1-1.86-1,2.45,2.45,0,0,1-.54-1.44A7,7,0,0,0,84.27,1273.34Z"/><path class="cls-5" d="M23.37,1303.21s1.46-.85,3.05,1.22.46,3.5.46,3.5Z"/><path class="cls-6" d="M26.49,1304.92a7.22,7.22,0,0,0-1.44-.79.82.82,0,0,1-.73-.48A3.85,3.85,0,0,1,24,1303a3,3,0,0,1,2.09.94,5.37,5.37,0,0,1,1,1.72Z"/><path class="cls-4" d="M19.75,1277.35l3.8,3.6,2.4,1.51s-1.8-.75-2.48-1-2.65-1.38-3.15-1-.75,2.92-1,2.39S19.75,1277.35,19.75,1277.35Z"/><path class="cls-14" d="M23.47,1281.48l2.51,1.18-2.55-.76a21.37,21.37,0,0,1-2.85-1.48A18.54,18.54,0,0,1,23.47,1281.48Z"/><path class="cls-5" d="M20.91,1276.13s2.29,3.42,2.56,3.72,2.48,2.61,2.48,2.61l-2.4-1.51-3.27-2.47Z"/><path class="cls-4" d="M16.77,1275.71c.16-.25,3,1.64,3,1.64l-.42,5.54-3.46,1.3S15.05,1278.48,16.77,1275.71Z"/><path class="cls-4" d="M87.88,1269.36s-3.2,1.84-3.38,2-.84,1.44-.61,1.8.87,1.1.87,1.1-.51-2-.26-2.12,1,.33,1.75.36,3.74-1.44,3.74-1.44Z"/><path class="cls-17" d="M78.27,1306.34a29,29,0,0,1-3.16,3.49c-3.72-.7-5.88-4-8.13-7.55-2.7-4.21-5.5-8.55-11.33-9.14a21.44,21.44,0,0,1-7-1.38,20.06,20.06,0,0,1,.53,4.79,57.12,57.12,0,0,1-.47,6.28,54,54,0,0,0-.44,5.93c0,3.08.51,7,4.32,10.07a31.72,31.72,0,0,1-5-.41,16,16,0,0,1-2.69-9.63,58,58,0,0,1,.46-6.33,56.09,56.09,0,0,0,.44-5.87,12.1,12.1,0,0,0-2.18-7.67,20.42,20.42,0,0,1-4.14-4.17c-1.64,3.87-5.3,6.9-8.55,9.59-3.41,2.82-6.35,5.26-6.39,8a31.37,31.37,0,0,1-2-4.31c1.47-2.28,3.89-4.26,6.44-6.36,4-3.26,8.07-6.65,8.07-11.09a8.49,8.49,0,0,0-.19-1.73,14.45,14.45,0,0,1-.26-2.74,13.18,13.18,0,0,1,.2-2.33,30.65,30.65,0,0,1-7.32,1.75c-3.36.51-6.34,1-8,2.83a31.25,31.25,0,0,1,1.75-5,35.23,35.23,0,0,1,5.81-1.24c4.26-.65,8.29-1.27,10.31-4.8l.17-.28,0,0a16.71,16.71,0,0,1,7-5.83,23.28,23.28,0,0,0-7.37-1.51A16.16,16.16,0,0,0,33,1261a31.45,31.45,0,0,1,8.08-4.59,34.51,34.51,0,0,1,7.58,1.9,54.29,54.29,0,0,0,5.79,1.67,16.19,16.19,0,0,1,10.86,5.82c-1.25-8.29-8.41-10.92-15.28-11.48.91-.08,1.84-.12,2.77-.12a32.46,32.46,0,0,1,11.2,2,16,16,0,0,1,4.88,12.13,18.9,18.9,0,0,1-.47,4.36L66.8,1279l-1.68-6.26a12.85,12.85,0,0,0-9-9c-.78-.1-1.6-.25-2.38-.41-.29,0-.63,0-1,0A12.61,12.61,0,0,0,42.31,1269a7.68,7.68,0,0,1-.51.8,12.71,12.71,0,0,0-1.82,6.32c0,6.61,6.69,12.8,14.63,13.55.52,0,1,0,1.47.09h.39c10.39,0,18.23-7.25,18.23-16.86a19.25,19.25,0,0,0-8.54-15.78,32,32,0,0,1,10.16,7.3,21.65,21.65,0,0,1,1.77,8.46c0,9.15-6.08,16.85-15.22,19.39,3.09,2.17,5.11,5.32,6.91,8.11,2.12,3.31,4,6.17,6.86,6.17A6.18,6.18,0,0,0,78.27,1306.34Z"/><path class="cls-18" d="M79.27,1275.25a67.32,67.32,0,0,1,7.28.39,34.25,34.25,0,0,0-32.63-23.33c-19,0-34.31,15.1-34.31,33.73a33.13,33.13,0,0,0,5.31,18C35.46,1286.89,55.85,1275.25,79.27,1275.25Z"/><path class="cls-19" d="M57.37,1255.87c-8.5.19.29,7.85,6.59,6.59S63.71,1255.73,57.37,1255.87Z"/><path class="cls-4" d="M386.76,1912.94v-2.19h-.06a36.36,36.36,0,0,0-6.8-19.17l.09,0-1.12-1.42a39.38,39.38,0,0,0-30.12-14.85h-1.05a39.57,39.57,0,0,0-27.42,10.84,36.85,36.85,0,0,0-11.59,24.67h-.06v7.13c0,20.48,17.52,37.14,39.07,37.14s39.07-16.66,39.07-37.14v-4.94Zm-39.07,38.85c-19.73,0-35.78-15.21-35.78-33.91v-5.49c.29-18.7,16.34-33.92,35.76-33.92h1a36.1,36.1,0,0,1,26.43,12.2h0l1.12,1.42a33.42,33.42,0,0,1,7.26,20.28v5.49C383.46,1936.58,367.41,1951.79,347.69,1951.79Z"/><path class="cls-5" d="M384.91,1912.36c-2-25.65-20.29-35.37-37.22-35.37-15.09,0-35.3,9.45-37.23,35.37h-.2v5.52c0,19.62,16.76,35.52,37.43,35.52s37.42-15.9,37.42-35.52v-5.52Z"/><path class="cls-6" d="M347.76,1951.81c-20.67,0-37.44-16.26-37.67-36.39,0,.42,0,.83,0,1.26,0,20.32,16.87,36.8,37.68,36.8s37.67-16.48,37.67-36.8c0-.42,0-.84,0-1.26C385.2,1935.56,368.42,1951.81,347.76,1951.81Z"/><path class="cls-22" d="M382,1914.19c0,18.63-15.36,33.73-34.3,33.73s-34.31-15.1-34.31-33.73,15.36-33.73,34.31-33.73S382,1895.56,382,1914.19Z"/><path class="cls-8" d="M311.36,1904.11s3.4-1.09,3.47-.43,3.18-6.38,6.28-9.2a27.7,27.7,0,0,0,4.12-4.38,6,6,0,0,0,5.29-1.59c2.3-2.32,3.36-3.61,3.36-3.61s12.73-4.48,21.07-2.32,17.72,9.68,17.72,9.68l2.46-1.5.32-2.68a37.66,37.66,0,0,0-25.31-10.9c-16.08-.56-22.84,5.5-28.07,9.45S311.36,1904.11,311.36,1904.11Z"/><path class="cls-9" d="M347.69,1882.39c18.62,0,33.76,14.58,34.28,32.76,0-.32,0-.64,0-1,0-18.63-15.36-33.73-34.31-33.73s-34.31,15.1-34.31,33.73c0,.32,0,.64,0,1C313.93,1897,329.07,1882.39,347.69,1882.39Z"/><path class="cls-10" d="M347.69,1946.49c-18.71,0-33.9-14.72-34.29-33,0,.24,0,.48,0,.72,0,18.63,15.36,33.73,34.31,33.73s34.3-15.1,34.3-33.73c0-.24,0-.48,0-.72C381.59,1931.77,366.39,1946.49,347.69,1946.49Z"/><path class="cls-8" d="M333.3,1883.05s.95,2.85-2.75,5.26-5.65,0-5.65,0Z"/><path class="cls-5" d="M328,1887.89H326.2l-1,.73s1.13,1.28,3.56.55a6.41,6.41,0,0,0,4-3.05C333.14,1885.34,329.57,1887.89,328,1887.89Z"/><path class="cls-4" d="M340.42,1880.59s.12,1.53-2,2.26-2.8-.7-2.8-.7Z"/><path class="cls-11" d="M337.22,1882.33l-.9-.22-.57.24a1.72,1.72,0,0,0,1.69.71,3.24,3.24,0,0,0,2.34-1C340.06,1881.71,338,1882.52,337.22,1882.33Z"/><path class="cls-5" d="M355.76,1947.92s-.36-2.2,2.63-3.53,4.13.66,4.13.66Z"/><path class="cls-6" d="M359,1944.47a10.08,10.08,0,0,0-1.49,1.6,1.12,1.12,0,0,1-.84.77,3.63,3.63,0,0,1-.81.16,4.48,4.48,0,0,1,1.92-2.38,6.16,6.16,0,0,1,2.35-.69Z"/><path class="cls-12" d="M378,1928.38a20,20,0,0,1-2.37,2.15c-.83.66-1.69,1.28-2.57,1.86s-1.79,1.12-2.73,1.62a20.78,20.78,0,0,1-2.92,1.31,21,21,0,0,1,2.37-2.16c.83-.65,1.69-1.27,2.58-1.85s1.79-1.12,2.72-1.62A21.3,21.3,0,0,1,378,1928.38Z"/><path class="cls-13" d="M378.28,1928.06a36.17,36.17,0,0,1-6.35,5,38.21,38.21,0,0,1-4.79,2.22,24.91,24.91,0,0,0,5.57-2.06C375.13,1931.93,378.28,1928.06,378.28,1928.06Z"/><path class="cls-4" d="M375.67,1930.11s-3.79,2.14-4.35,2.49-2.59,1.8-2.59,1.8A19.33,19.33,0,0,0,375.67,1930.11Z"/><path class="cls-4" d="M377.65,1935.85l-2.66.53h-1.47s1,.17,1.36.26,1.54.13,1.65.44-.48,1.49-.22,1.32A19.38,19.38,0,0,0,377.65,1935.85Z"/><path class="cls-14" d="M374.88,1936.64l-1.43-.18,1.33.37a10.24,10.24,0,0,0,1.66.14A10.22,10.22,0,0,0,374.88,1936.64Z"/><path class="cls-4" d="M359.05,1952.41l.95-4.53-.09-2.45s.41,1.63.61,2.23.37,2.55,1,2.69,3.09-1,2.75-.58S359.05,1952.41,359.05,1952.41Z"/><path class="cls-14" d="M360.52,1947.66l-.59-2.36s1,2,1,2.16a14.22,14.22,0,0,1,.38,2.75A13.59,13.59,0,0,1,360.52,1947.66Z"/><path class="cls-15" d="M357.14,1952.33s1.71-3.39,1.82-3.74,1-3.29,1-3.29l.25,2.55-.54,3.67Z"/><path class="cls-4" d="M339.65,1877.66c.06.09,1,2.67.77,2.93s-4.67,1.76-4.67,1.76l-1.74-3.69S339,1876.61,339.65,1877.66Z"/><path class="cls-4" d="M364.62,1878.91s.1,5.12.58,5.48,8.32,1.32,8.74,1.37S372.62,1882.86,364.62,1878.91Z"/><path class="cls-16" d="M372.62,1885.45s-7.08-.91-7.25-1a4.06,4.06,0,0,1-.69-2.34c0-1,0-2,0-2s0,2.5-.06,3.41a2.82,2.82,0,0,0,.79,1.76l7.63.5Z"/><path class="cls-5" d="M381.4,1903.2a3.27,3.27,0,0,1-3.31-1.33c-1.13-1.78.89-2.72.89-2.72Z"/><path class="cls-5" d="M378.2,1901.49a2.78,2.78,0,0,0,1.73.81s-.05.09.07.4a2.76,2.76,0,0,1,.14.52,3,3,0,0,1-1.86-1,2.45,2.45,0,0,1-.54-1.44A6.8,6.8,0,0,0,378.2,1901.49Z"/><path class="cls-5" d="M317.31,1931.36s1.46-.86,3.05,1.21.45,3.5.45,3.5Z"/><path class="cls-6" d="M320.43,1933.07a7.53,7.53,0,0,0-1.45-.8.82.82,0,0,1-.73-.48,3,3,0,0,1-.28-.6,3,3,0,0,1,2.09.93,5.37,5.37,0,0,1,1,1.72Z"/><path class="cls-4" d="M313.68,1905.5l3.8,3.59,2.4,1.51s-1.8-.74-2.48-1-2.65-1.37-3.15-1-.75,2.92-1,2.38S313.68,1905.5,313.68,1905.5Z"/><path class="cls-14" d="M317.4,1909.62l2.51,1.18s-2.42-.71-2.55-.76a20.14,20.14,0,0,1-2.84-1.48A19.51,19.51,0,0,1,317.4,1909.62Z"/><path class="cls-5" d="M314.84,1904.27s2.29,3.43,2.56,3.73,2.48,2.6,2.48,2.6l-2.4-1.51-3.27-2.47Z"/><path class="cls-4" d="M310.7,1903.86c.16-.25,3,1.64,3,1.64l-.42,5.53-3.46,1.31S309,1906.63,310.7,1903.86Z"/><path class="cls-4" d="M381.81,1897.51s-3.19,1.83-3.38,2-.84,1.44-.61,1.8a12.64,12.64,0,0,0,.87,1.1s-.51-2-.26-2.12,1,.34,1.76.37,3.73-1.44,3.73-1.44Z"/><path class="cls-17" d="M382,1914.78,350.77,1893l-37.08,21.41a32,32,0,0,0,.41,3.56L350,1897.24l.86,1.76c-11.49,6.62-24.82,14.33-36.33,21,.05.23.11.46.17.69l36.45-21,.76,1.58-36.72,21.2.21.66,36.81-21.25.77,1.58c-11.72,6.78-25.35,14.64-37,21.35.08.22.17.42.26.64,6.31-3.65,13.2-7.62,20.05-11.59l-.18.19-4.6,4.6L317,1927c.1.21.21.41.31.61l12.39-7.15-4.79,4.78-6.77,3.91.34.6,4.57-2.64-3.82,3.83c.6.92,1.25,1.82,1.94,2.69l16.07-16.07L349.83,1932l-8.55,12.8-.16.25-.42.63a32.36,32.36,0,0,0,3.57.56l11.55-17.3,1.75,1-10.38,16.46H348l10.16-16.13,1.51.89-9.56,15.16c.29,0,.56,0,.85-.06l9.3-14.76,1.51.89L353.19,1946c.3,0,.61-.09.91-.15l8.26-13.1,1.52.88-7.37,11.68,1-.26,7-11.07,1.52.89-5.86,9.29,1.08-.43,5.36-8.52,1.51.88-3.9,6.2,1.26-.72,3.23-5.13,1.51.88-1.07,1.72a34.43,34.43,0,0,0,4-3.78l-16.47-9.64-3.93-11.44,5.94-2.5,1.59-.67-.75-1.56-4.64-9.62,26.64,18.59A32,32,0,0,0,382,1914.78Zm-43.48-.72-.9-1,15.63-9,.76,1.58-15.22,8.79Zm4,4.58,6.92-4,.58,1.68-6.33,3.65Zm1.63,1.87,6.1-3.52.57,1.69-5.5,3.17Zm1.63,1.86,5.27-3,.58,1.69-4.67,2.7Zm1.64,1.87,4.44-2.56.57,1.68-3.85,2.22Zm6.11,2.29-1.79,2.67-1.07-1.22,2.8-1.62Zm-.29-.82-3,1.74-1.18-1.34,3.62-2.09Zm2.59-16.36-5.76,2.43-1.42.59.5,1.45.06.17-7.14,4.13-1.18-1.35,14.49-8.36Zm-.75-1.56-14.64,8.46-1.18-1.35,15.06-8.69Z"/><path class="cls-18" d="M373.2,1903.4a70,70,0,0,1,7.29.38,34.28,34.28,0,0,0-32.64-23.32c-19,0-34.31,15.1-34.31,33.73a33.12,33.12,0,0,0,5.31,18C329.39,1915,349.78,1903.4,373.2,1903.4Z"/><path class="cls-19" d="M351.31,1884c-8.5.18.28,7.84,6.58,6.58S357.65,1883.88,351.31,1884Z"/><path class="cls-4" d="M196.08,2523.47v-2.19H196a36.53,36.53,0,0,0-6.8-19.17l.08-.05-1.12-1.42a39.34,39.34,0,0,0-30.12-14.85H157a39.61,39.61,0,0,0-27.42,10.84A36.8,36.8,0,0,0,118,2521.28h-.07v7.13c0,20.48,17.53,37.14,39.07,37.14s39.07-16.66,39.07-37.14v-4.94ZM157,2562.32c-19.72,0-35.77-15.21-35.77-33.91v-5.49c.3-18.7,16.34-33.92,35.76-33.92h1a36.1,36.1,0,0,1,26.43,12.2h0l1.12,1.42a33.35,33.35,0,0,1,7.26,20.28v5.49C192.79,2547.11,176.74,2562.32,157,2562.32Z"/><path class="cls-5" d="M194.23,2522.89c-1.94-25.65-20.28-35.37-37.22-35.37-15.09,0-35.3,9.45-37.23,35.37h-.19v5.52c0,19.62,16.75,35.52,37.42,35.52s37.42-15.9,37.42-35.52v-5.52Z"/><path class="cls-6" d="M157.08,2562.34c-20.67,0-37.44-16.26-37.67-36.39,0,.42,0,.84,0,1.26,0,20.32,16.87,36.8,37.68,36.8s37.67-16.48,37.67-36.8c0-.42,0-.84,0-1.26C194.52,2546.09,177.75,2562.34,157.08,2562.34Z"/><path class="cls-23" d="M191.32,2524.72c0,18.63-15.36,33.73-34.31,33.73s-34.31-15.1-34.31-33.73S138.06,2491,157,2491,191.32,2506.09,191.32,2524.72Z"/><path class="cls-8" d="M120.68,2514.64s3.4-1.09,3.47-.43,3.18-6.38,6.28-9.2a27.7,27.7,0,0,0,4.12-4.38,6,6,0,0,0,5.29-1.59c2.3-2.32,3.36-3.61,3.36-3.61s12.74-4.48,21.07-2.32,17.72,9.68,17.72,9.68l2.46-1.5.33-2.68a37.67,37.67,0,0,0-25.32-10.9c-16.08-.56-22.84,5.5-28.07,9.45S120.68,2514.64,120.68,2514.64Z"/><path class="cls-9" d="M157,2492.92c18.62,0,33.76,14.58,34.28,32.76,0-.32,0-.64,0-1,0-18.63-15.36-33.73-34.31-33.73s-34.31,15.1-34.31,33.73c0,.32,0,.64,0,1C123.25,2507.5,138.39,2492.92,157,2492.92Z"/><path class="cls-10" d="M157,2557c-18.7,0-33.9-14.71-34.29-33,0,.23,0,.47,0,.71,0,18.63,15.36,33.73,34.31,33.73s34.31-15.1,34.31-33.73c0-.24,0-.48,0-.71C190.91,2542.31,175.72,2557,157,2557Z"/><path class="cls-8" d="M142.62,2493.58s.95,2.85-2.74,5.26-5.66,0-5.66,0Z"/><path class="cls-5" d="M137.34,2498.42h-1.81l-1,.73s1.14,1.28,3.56.55a6.38,6.38,0,0,0,4-3C142.47,2495.87,138.9,2498.42,137.34,2498.42Z"/><path class="cls-4" d="M149.75,2491.12s.11,1.53-2,2.26-2.79-.7-2.79-.7Z"/><path class="cls-11" d="M146.54,2492.86l-.9-.22-.57.24a1.72,1.72,0,0,0,1.69.71,3.27,3.27,0,0,0,2.35-1C149.39,2492.24,147.31,2493.05,146.54,2492.86Z"/><path class="cls-5" d="M165.09,2558.45s-.36-2.2,2.62-3.53,4.14.66,4.14.66Z"/><path class="cls-6" d="M168.3,2555a10.57,10.57,0,0,0-1.49,1.6,1.12,1.12,0,0,1-.84.77,3.51,3.51,0,0,1-.8.16,4.44,4.44,0,0,1,1.91-2.38,6.21,6.21,0,0,1,2.35-.69Z"/><path class="cls-12" d="M187.33,2538.91a20.91,20.91,0,0,1-2.38,2.15c-.83.66-1.69,1.28-2.57,1.86s-1.79,1.12-2.72,1.62a20.9,20.9,0,0,1-2.93,1.31,22.88,22.88,0,0,1,2.37-2.16c.84-.65,1.7-1.27,2.58-1.85s1.79-1.12,2.72-1.62A20.9,20.9,0,0,1,187.33,2538.91Z"/><path class="cls-13" d="M187.6,2538.59a35.75,35.75,0,0,1-6.35,5,37.45,37.45,0,0,1-4.79,2.22,25.19,25.19,0,0,0,5.57-2C184.45,2542.46,187.6,2538.59,187.6,2538.59Z"/><path class="cls-4" d="M185,2540.64s-3.79,2.14-4.36,2.49-2.59,1.8-2.59,1.8A19.41,19.41,0,0,0,185,2540.64Z"/><path class="cls-4" d="M187,2546.38l-2.66.54h-1.47s1,.16,1.36.25,1.55.13,1.66.44-.48,1.49-.23,1.32A19.38,19.38,0,0,0,187,2546.38Z"/><path class="cls-14" d="M184.2,2547.17l-1.42-.18,1.32.37a10.43,10.43,0,0,0,1.66.14A10,10,0,0,0,184.2,2547.17Z"/><path class="cls-4" d="M168.37,2562.94l.95-4.53-.09-2.45s.42,1.63.61,2.23.37,2.56,1,2.69,3.09-1,2.76-.58S168.37,2562.94,168.37,2562.94Z"/><path class="cls-14" d="M169.84,2558.19l-.58-2.36s1,2.05,1,2.16a15.06,15.06,0,0,1,.39,2.75A12.89,12.89,0,0,1,169.84,2558.19Z"/><path class="cls-15" d="M166.46,2562.86s1.71-3.39,1.82-3.74,1-3.29,1-3.29l.24,2.55-.53,3.67Z"/><path class="cls-4" d="M149,2488.19c.05.09,1,2.67.77,2.93s-4.68,1.76-4.68,1.76l-1.74-3.69S148.27,2487.14,149,2488.19Z"/><path class="cls-4" d="M174,2489.44s.09,5.12.57,5.48,8.33,1.32,8.74,1.37S181.94,2493.39,174,2489.44Z"/><path class="cls-16" d="M181.94,2496s-7.08-.91-7.25-1a4.14,4.14,0,0,1-.69-2.34c0-1,0-2,0-2s0,2.51-.05,3.41a2.77,2.77,0,0,0,.79,1.76l7.62.5Z"/><path class="cls-5" d="M190.72,2513.73a3.27,3.27,0,0,1-3.31-1.33c-1.13-1.78.89-2.72.89-2.72Z"/><path class="cls-5" d="M187.53,2512a2.76,2.76,0,0,0,1.73.81s-.06.09.06.4a3.92,3.92,0,0,1,.15.52,3,3,0,0,1-1.87-1,2.45,2.45,0,0,1-.54-1.44A7.37,7.37,0,0,0,187.53,2512Z"/><path class="cls-5" d="M126.63,2541.89s1.46-.86,3.05,1.21.45,3.5.45,3.5Z"/><path class="cls-6" d="M129.75,2543.6a7.53,7.53,0,0,0-1.45-.8.8.8,0,0,1-.72-.47,3,3,0,0,1-.29-.61,3,3,0,0,1,2.09.93,5.37,5.37,0,0,1,1,1.72Z"/><path class="cls-4" d="M123,2516l3.79,3.59,2.4,1.51s-1.79-.74-2.47-1-2.66-1.37-3.16-1-.74,2.92-1,2.38S123,2516,123,2516Z"/><path class="cls-14" d="M126.73,2520.15l2.51,1.18s-2.43-.71-2.55-.76a20.25,20.25,0,0,1-2.85-1.48A19.61,19.61,0,0,1,126.73,2520.15Z"/><path class="cls-5" d="M124.16,2514.8s2.29,3.43,2.56,3.73l2.48,2.6-2.4-1.51-3.26-2.46Z"/><path class="cls-4" d="M120,2514.39c.16-.25,3,1.64,3,1.64l-.42,5.53-3.47,1.31S118.3,2517.16,120,2514.39Z"/><path class="cls-4" d="M191.14,2508s-3.2,1.83-3.38,2-.84,1.44-.61,1.81a12.14,12.14,0,0,0,.86,1.09s-.51-2-.25-2.11,1,.33,1.75.36,3.73-1.44,3.73-1.44Z"/><path class="cls-4" d="M177.87,2499.86c-7.89,1.09-19.86-3.29-23.24,6.27,9.44-2.36,20.66,0,26.56,8.85a25.07,25.07,0,0,1,.76,27.58,21.16,21.16,0,0,0-2.71,5.8,32.43,32.43,0,0,0-1.37-48.5Z"/><path class="cls-4" d="M171.75,2509.67c-10.63-5.31-20.66,2.95-24.79,12.39-5.31-3.54-1.77-11.8,1.18-15.93a22.61,22.61,0,0,1,16.45-8.73,45.4,45.4,0,0,0,8.11-.83v-.26a31.92,31.92,0,0,0-12.51-3.89v1.38c-8.51,4.07-16.77,8.79-19.72,17.64-2.36,8.26-.59,17.11,6.49,22.43,4.72,3,11.21,3,15.34-1.18,4.73-5.91-3-7.09-5.31-11.22-1.18-3.54,1.77-7.08,5.31-8.26,11.22-2.36,19.48,8.85,18.3,19.48-1.18,12.39-11.8,17.11-20.41,22.94V2557a32.08,32.08,0,0,0,12.51-3.89v-.26a15.21,15.21,0,0,1,1.78-2.68C186.5,2539.18,187.68,2517.34,171.75,2509.67Z"/><path class="cls-4" d="M178.24,2536.82c1.18-5.31,1.18-11.22-2.36-15.94-2.95-3-8.26-7.08-10.63-3-1.77,3,3.55,6.49,2.37,11.21-1.78,7.68-11.22,11.22-18.3,8.27a18.93,18.93,0,0,1-11.21-15.94c-1.77-12.39,7.67-20.65,15.7-27.67v-1.38a32.14,32.14,0,0,0-12.52,3.9c0,1.08,0,2.27-.06,3.56-5.48,11-10.2,24.54-.76,35.76a24.59,24.59,0,0,0,24.78,7.08c-1.18,7.67-14.16,7.08-20.48,5.92-2.49-.46-3.37,0-3.47,1v3.46a32.42,32.42,0,0,0,12.51,3.89v-1.39C162.89,2550.39,174.7,2548.62,178.24,2536.82Z"/><path class="cls-4" d="M142.24,2542.72c-8.85-9.44-11.21-23-7.31-35.47v-6.31a32.45,32.45,0,0,0,0,47.56v-6.31C137.52,2540.36,139.88,2543.31,142.24,2542.72Z"/><path class="cls-18" d="M182.52,2513.93a70,70,0,0,1,7.29.38A34.26,34.26,0,0,0,157.17,2491c-18.94,0-34.3,15.1-34.3,33.73a33.1,33.1,0,0,0,5.31,18C138.72,2525.56,159.1,2513.93,182.52,2513.93Z"/><path class="cls-19" d="M160.63,2494.55c-8.5.18.28,7.84,6.58,6.58S167,2494.41,160.63,2494.55Z"/></g></g></g></svg>