<svg xmlns="http://www.w3.org/2000/svg" viewBox="0 0 74.79 74.79"><defs><style>.cls-1{fill:#55acee;}.cls-2{fill:#f1f2f2;}</style></defs><g id="Слой_2" data-name="Слой 2"><g id="Слой_1-2" data-name="Слой 1"><circle class="cls-1" cx="37.4" cy="37.4" r="37.4"/><path class="cls-2" d="M60.3,26.88a17.63,17.63,0,0,1-5.13,1.4,8.92,8.92,0,0,0,3.93-4.94,18,18,0,0,1-5.68,2.17A8.94,8.94,0,0,0,38,31.62a9.11,9.11,0,0,0,.23,2,25.35,25.35,0,0,1-18.42-9.34,8.95,8.95,0,0,0,2.76,11.93,8.85,8.85,0,0,1-4.05-1.11v.11A9,9,0,0,0,25.65,44a8.71,8.71,0,0,1-2.35.32,9.2,9.2,0,0,1-1.68-.16A9,9,0,0,0,30,50.38a18,18,0,0,1-11.1,3.82,18.92,18.92,0,0,1-2.14-.12,25.38,25.38,0,0,0,13.71,4c16.44,0,25.43-13.62,25.43-25.43,0-.39,0-.77,0-1.16a18,18,0,0,0,4.46-4.62Z"/></g></g></svg>