<svg xmlns="http://www.w3.org/2000/svg" xmlns:xlink="http://www.w3.org/1999/xlink" viewBox="0 0 78.14 79.78"><defs><style>.cls-1{isolation:isolate;}.cls-10,.cls-13,.cls-15,.cls-2,.cls-4{fill:#6d3902;}.cls-3{fill:#ad6512;}.cls-4{opacity:0.33;}.cls-5{fill:url(#linear-gradient);}.cls-6{fill:#deac39;}.cls-7{fill:#fcf8c3;}.cls-8{fill:#fff994;}.cls-9{fill:#8f4900;}.cls-10{opacity:0.32;}.cls-11{fill:#f3e090;}.cls-12{fill:#fad41d;}.cls-13{opacity:0.35;}.cls-14{fill:#f8f6c8;}.cls-14,.cls-16{mix-blend-mode:overlay;}.cls-15{fill-rule:evenodd;}.cls-16,.cls-17{fill:#fff;}.cls-16{opacity:0.37;}</style><linearGradient id="linear-gradient" x1="39.07" y1="-9.99" x2="39.07" y2="76.81" gradientUnits="userSpaceOnUse"><stop offset="0" stop-color="#fbe207"/><stop offset="1" stop-color="#cc7c15"/></linearGradient></defs><g class="cls-1"><g id="Слой_2" data-name="Слой 2"><g id="Слой_1-2" data-name="Слой 1"><path class="cls-2" d="M78.14,37.7V35.5h-.06a36.53,36.53,0,0,0-6.8-19.16l.08-.06-1.12-1.42A39.38,39.38,0,0,0,40.12,0h-1A39.61,39.61,0,0,0,11.65,10.84,36.84,36.84,0,0,0,.07,35.5H0v7.14C0,63.12,17.53,79.78,39.07,79.78S78.14,63.12,78.14,42.64V37.7ZM39.07,76.55C19.35,76.55,3.3,61.34,3.3,42.64v-5.5C3.6,18.44,19.64,3.23,39.06,3.23h1A36.15,36.15,0,0,1,66.47,15.45h0l1.12,1.42a33.36,33.36,0,0,1,7.25,20.27v5.5C74.85,61.34,58.8,76.55,39.07,76.55Z"/><path class="cls-3" d="M76.29,37.12C74.35,11.46,56,1.75,39.07,1.75,24,1.75,3.77,11.19,1.85,37.12h-.2v5.52c0,19.62,16.75,35.52,37.42,35.52s37.42-15.9,37.42-35.52V37.12Z"/><path class="cls-4" d="M39.14,76.57C18.47,76.57,1.7,60.31,1.48,40.18c0,.41,0,.83,0,1.26,0,20.32,16.87,36.79,37.68,36.79S76.82,61.76,76.82,41.44c0-.43,0-.84,0-1.26C76.58,60.31,59.81,76.57,39.14,76.57Z"/><path class="cls-5" d="M73.38,39c0,18.63-15.36,33.73-34.31,33.73S4.76,57.58,4.76,39,20.12,5.22,39.07,5.22,73.38,20.32,73.38,39Z"/><path class="cls-6" d="M2.74,28.87s3.4-1.1,3.47-.43,3.19-6.39,6.28-9.21a27.87,27.87,0,0,0,4.13-4.37,5.92,5.92,0,0,0,5.28-1.6c2.3-2.31,3.36-3.6,3.36-3.6S38,5.18,46.33,7.34,64.06,17,64.06,17l2.45-1.5.33-2.68A37.67,37.67,0,0,0,41.52,1.94c-16.08-.56-22.84,5.49-28.07,9.45S2.74,28.87,2.74,28.87Z"/><path class="cls-7" d="M39.07,7.15c18.62,0,33.76,14.58,34.28,32.76,0-.32,0-.64,0-1C73.38,20.32,58,5.22,39.07,5.22S4.76,20.32,4.76,39c0,.32,0,.64,0,1C5.31,21.73,20.45,7.15,39.07,7.15Z"/><path class="cls-8" d="M39.07,71.25c-18.7,0-33.9-14.72-34.29-33,0,.24,0,.48,0,.72,0,18.63,15.36,33.73,34.31,33.73S73.38,57.58,73.38,39c0-.24,0-.48,0-.72C73,56.53,57.78,71.25,39.07,71.25Z"/><path class="cls-6" d="M24.68,7.81s.95,2.85-2.74,5.26-5.65,0-5.65,0Z"/><path class="cls-3" d="M19.4,12.65H17.59l-1,.73s1.14,1.27,3.56.54a6.38,6.38,0,0,0,4-3C24.53,10.1,21,12.65,19.4,12.65Z"/><path class="cls-2" d="M31.81,5.35s.12,1.53-2,2.26S27,6.91,27,6.91Z"/><path class="cls-9" d="M28.6,7.09l-.9-.22-.57.24a1.72,1.72,0,0,0,1.69.71,3.31,3.31,0,0,0,2.35-1C31.45,6.46,29.37,7.28,28.6,7.09Z"/><path class="cls-3" d="M47.15,72.67s-.36-2.2,2.62-3.52,4.14.66,4.14.66Z"/><path class="cls-4" d="M50.36,69.23a10.91,10.91,0,0,0-1.49,1.59,1.13,1.13,0,0,1-.84.78,3.51,3.51,0,0,1-.8.16,4.44,4.44,0,0,1,1.91-2.38,6.21,6.21,0,0,1,2.35-.69Z"/><path class="cls-10" d="M69.39,53.13A20.83,20.83,0,0,1,67,55.29c-.84.66-1.7,1.27-2.58,1.85s-1.79,1.12-2.72,1.62a19.85,19.85,0,0,1-2.93,1.32,22,22,0,0,1,2.38-2.16c.83-.66,1.69-1.27,2.57-1.85s1.79-1.12,2.72-1.62A22.17,22.17,0,0,1,69.39,53.13Z"/><path class="cls-11" d="M69.66,52.82a36.24,36.24,0,0,1-6.35,5,37.77,37.77,0,0,1-4.78,2.22A24.91,24.91,0,0,0,64.09,58C66.51,56.69,69.66,52.82,69.66,52.82Z"/><path class="cls-2" d="M67.06,54.87S63.27,57,62.71,57.36s-2.6,1.8-2.6,1.8A19.41,19.41,0,0,0,67.06,54.87Z"/><path class="cls-2" d="M69,60.61l-2.65.53H64.91s1,.17,1.35.25,1.55.13,1.66.45-.48,1.49-.23,1.32A19.38,19.38,0,0,0,69,60.61Z"/><path class="cls-12" d="M66.26,61.39l-1.42-.17,1.33.37a11.48,11.48,0,0,0,1.65.14A10,10,0,0,0,66.26,61.39Z"/><path class="cls-2" d="M50.43,77.17l1-4.53-.09-2.45s.42,1.63.62,2.23.36,2.55,1,2.69,3.09-1,2.76-.58A47.81,47.81,0,0,1,50.43,77.17Z"/><path class="cls-12" d="M51.91,72.42l-.59-2.36s1,2,1,2.16A14.24,14.24,0,0,1,52.7,75,12.89,12.89,0,0,1,51.91,72.42Z"/><path class="cls-13" d="M48.53,77.09s1.7-3.39,1.81-3.74,1-3.29,1-3.29l.24,2.55L51,76.28Z"/><path class="cls-2" d="M31,2.42c.05.08,1,2.66.77,2.93s-4.68,1.76-4.68,1.76L25.39,3.42S30.33,1.37,31,2.42Z"/><path class="cls-2" d="M56,3.67s.09,5.12.57,5.48,8.33,1.32,8.74,1.37S64,7.62,56,3.67Z"/><path class="cls-14" d="M64,10.21s-7.08-.91-7.25-1a4.07,4.07,0,0,1-.69-2.33c0-1,0-2,0-2s0,2.5-.05,3.41A2.8,2.8,0,0,0,56.8,10l7.62.5Z"/><path class="cls-3" d="M72.79,28a3.29,3.29,0,0,1-3.32-1.33c-1.13-1.78.89-2.72.89-2.72Z"/><path class="cls-3" d="M69.59,26.24a2.81,2.81,0,0,0,1.73.82s0,.09.06.39a2.6,2.6,0,0,1,.15.53,3,3,0,0,1-1.87-1,2.45,2.45,0,0,1-.54-1.44A6.32,6.32,0,0,0,69.59,26.24Z"/><path class="cls-3" d="M8.69,56.11s1.46-.85,3.05,1.22.45,3.5.45,3.5Z"/><path class="cls-4" d="M11.81,57.83a7.18,7.18,0,0,0-1.44-.8.8.8,0,0,1-.73-.48,3,3,0,0,1-.29-.61,3,3,0,0,1,2.09.94,5.37,5.37,0,0,1,1,1.72Z"/><path class="cls-2" d="M5.07,30.25l3.79,3.6,2.4,1.51s-1.79-.75-2.47-1S6.14,33,5.64,33.4s-.75,2.92-1,2.39S5.07,30.25,5.07,30.25Z"/><path class="cls-12" d="M8.79,34.38l2.51,1.18s-2.42-.71-2.55-.76A20.25,20.25,0,0,1,5.9,33.32,19.61,19.61,0,0,1,8.79,34.38Z"/><path class="cls-3" d="M6.23,29s2.28,3.42,2.56,3.73,2.47,2.6,2.47,2.6l-2.4-1.51L5.6,31.38Z"/><path class="cls-2" d="M2.09,28.62c.16-.25,3,1.63,3,1.63l-.42,5.54L1.18,37.1S.36,31.39,2.09,28.62Z"/><path class="cls-2" d="M73.2,22.27s-3.2,1.83-3.38,2-.84,1.44-.61,1.8a13.17,13.17,0,0,0,.86,1.1s-.51-2-.25-2.12,1,.33,1.75.37S75.3,24,75.3,24Z"/><path class="cls-15" d="M63.58,59.24a29,29,0,0,1-3.15,3.49c-3.73-.7-5.88-4-8.13-7.54C49.59,51,46.8,46.63,41,46a21.29,21.29,0,0,1-7-1.38,19.63,19.63,0,0,1,.54,4.8,57.13,57.13,0,0,1-.47,6.27,54.1,54.1,0,0,0-.45,5.93c0,3.08.51,7,4.33,10.07a31.63,31.63,0,0,1-5-.41,16,16,0,0,1-2.7-9.62,58.22,58.22,0,0,1,.47-6.34,56,56,0,0,0,.43-5.87c0-3.28-.69-5.72-2.17-7.67a20.42,20.42,0,0,1-4.14-4.17c-1.64,3.87-5.31,6.9-8.56,9.59-3.4,2.82-6.35,5.26-6.38,8a30.36,30.36,0,0,1-2-4.32c1.47-2.27,3.89-4.26,6.43-6.36,4-3.26,8.08-6.64,8.08-11.09a8.49,8.49,0,0,0-.19-1.73A14.36,14.36,0,0,1,21.94,29a13,13,0,0,1,.2-2.32,30.73,30.73,0,0,1-7.33,1.75c-3.35.51-6.33,1-7.95,2.82a30.17,30.17,0,0,1,1.75-4.94A33.91,33.91,0,0,1,14.41,25c4.26-.65,8.3-1.27,10.32-4.81l.16-.28.05,0a16.71,16.71,0,0,1,7-5.83,23.29,23.29,0,0,0-7.38-1.51,16.38,16.38,0,0,0-6.26,1.32,32,32,0,0,1,8.09-4.59A35.22,35.22,0,0,1,34,11.25a56.49,56.49,0,0,0,5.78,1.68,16.11,16.11,0,0,1,10.86,5.81c-1.25-8.29-8.4-10.92-15.27-11.48.91-.07,1.84-.12,2.77-.12a32.46,32.46,0,0,1,11.2,2,16,16,0,0,1,4.88,12.14,19.1,19.1,0,0,1-.47,4.36L52.11,31.9l-1.67-6.25a12.83,12.83,0,0,0-9-9c-.78-.1-1.6-.25-2.38-.42-.3,0-.63,0-1,0a12.63,12.63,0,0,0-10.47,5.73,7.68,7.68,0,0,1-.51.8,12.67,12.67,0,0,0-1.83,6.32c0,6.61,6.7,12.81,14.64,13.56.52,0,1,0,1.47.08h.39C52.18,42.69,60,35.44,60,25.83a19.24,19.24,0,0,0-8.55-15.77,32.15,32.15,0,0,1,10.17,7.29,21.65,21.65,0,0,1,1.77,8.46c0,9.15-6.09,16.85-15.22,19.4,3.09,2.16,5.11,5.31,6.9,8.11,2.12,3.3,4,6.16,6.86,6.16A6.13,6.13,0,0,0,63.58,59.24Z"/><path class="cls-16" d="M64.58,28.15a70,70,0,0,1,7.29.39A34.25,34.25,0,0,0,39.23,5.22C20.29,5.22,4.93,20.32,4.93,39a33.12,33.12,0,0,0,5.31,18C20.78,39.79,41.16,28.15,64.58,28.15Z"/><path class="cls-17" d="M42.69,8.78c-8.5.18.28,7.84,6.58,6.58S49,8.64,42.69,8.78Z"/></g></g></g></svg>