<svg xmlns="http://www.w3.org/2000/svg" xmlns:xlink="http://www.w3.org/1999/xlink" viewBox="0 0 257.11 431.34"><defs><style>.cls-1{isolation:isolate;}.cls-2{opacity:0.11;}.cls-3{fill:#2d444d;}.cls-12,.cls-15,.cls-16,.cls-17,.cls-18,.cls-4,.cls-6{opacity:0.3;}.cls-5{opacity:0.1;fill:url(#linear-gradient);}.cls-6{fill:url(#linear-gradient-2);}.cls-7{fill:url(#linear-gradient-3);}.cls-8{fill:url(#radial-gradient);}.cls-9{opacity:0.5;}.cls-10{fill:#030;}.cls-11,.cls-14,.cls-18{fill:#c1dedf;}.cls-12{fill:url(#linear-gradient-4);}.cls-13,.cls-14{opacity:0.4;}.cls-15{fill:url(#linear-gradient-5);}.cls-16{fill:url(#linear-gradient-6);}.cls-17{fill:url(#linear-gradient-7);}.cls-19{fill:url(#radial-gradient-2);}.cls-20{fill:url(#radial-gradient-3);}.cls-21{fill:url(#radial-gradient-4);}.cls-22{fill:url(#radial-gradient-5);}.cls-23,.cls-25,.cls-26,.cls-28{mix-blend-mode:color-dodge;}.cls-23{fill:url(#radial-gradient-6);}.cls-24{fill:url(#radial-gradient-7);}.cls-25{opacity:0.7;fill:url(#radial-gradient-8);}.cls-26{fill:url(#radial-gradient-9);}.cls-27{fill:url(#radial-gradient-10);}.cls-28{fill:url(#radial-gradient-11);}</style><linearGradient id="linear-gradient" x1="109.1" y1="338.1" x2="250.27" y2="338.1" gradientUnits="userSpaceOnUse"><stop offset="0" stop-color="#a2b2b9"/><stop offset="1" stop-color="#7b97a4"/></linearGradient><linearGradient id="linear-gradient-2" x1="47.81" y1="337.93" x2="250.29" y2="337.93" xlink:href="#linear-gradient"/><linearGradient id="linear-gradient-3" x1="0" y1="350.25" x2="196.44" y2="350.25" xlink:href="#linear-gradient"/><radialGradient id="radial-gradient" cx="-312.67" cy="347.4" r="76" gradientTransform="translate(348.77) scale(0.74 1)" gradientUnits="userSpaceOnUse"><stop offset="0" stop-color="#96fd33"/><stop offset="0.17" stop-color="#90fa30"/><stop offset="0.4" stop-color="#80f228"/><stop offset="0.65" stop-color="#66e41a"/><stop offset="0.92" stop-color="#42d107"/><stop offset="1" stop-color="#35ca00"/></radialGradient><linearGradient id="linear-gradient-4" x1="97.04" y1="233.76" x2="152.39" y2="233.76" gradientUnits="userSpaceOnUse"><stop offset="0.14"/><stop offset="0.62" stop-color="#d4c0d4"/></linearGradient><linearGradient id="linear-gradient-5" x1="139.31" y1="255.13" x2="169.36" y2="255.13" xlink:href="#linear-gradient-4"/><linearGradient id="linear-gradient-6" x1="63.42" y1="220.16" x2="93.49" y2="220.16" xlink:href="#linear-gradient-4"/><linearGradient id="linear-gradient-7" x1="31.02" y1="170.48" x2="67.29" y2="170.48" xlink:href="#linear-gradient-4"/><radialGradient id="radial-gradient-2" cx="112.59" cy="235.83" r="12.58" gradientTransform="matrix(1, 0, 0, 1, 0, 0)" xlink:href="#radial-gradient"/><radialGradient id="radial-gradient-3" cx="187.98" cy="209.52" r="103.55" gradientTransform="matrix(1, 0, 0, 1, 0, 0)" xlink:href="#radial-gradient"/><radialGradient id="radial-gradient-4" cx="130.63" cy="22.67" r="18.28" gradientTransform="matrix(1, 0, 0, 1, 0, 0)" xlink:href="#radial-gradient"/><radialGradient id="radial-gradient-5" cx="191.52" cy="44.45" r="26.06" gradientTransform="matrix(1, 0, 0, 1, 0, 0)" xlink:href="#radial-gradient"/><radialGradient id="radial-gradient-6" cx="178.93" cy="97.46" r="62.52" gradientUnits="userSpaceOnUse"><stop offset="0" stop-color="#fdfd33"/><stop offset="1"/></radialGradient><radialGradient id="radial-gradient-7" cx="-276.13" cy="-164.97" r="53.24" gradientTransform="matrix(0.98, -0.2, 0.2, 0.98, 413.52, 212.39)" xlink:href="#radial-gradient"/><radialGradient id="radial-gradient-8" cx="-283.98" cy="-221.33" r="49.56" gradientTransform="matrix(0.98, -0.2, 0.2, 0.98, 413.52, 212.39)" xlink:href="#radial-gradient-6"/><radialGradient id="radial-gradient-9" cx="203.11" cy="33.07" r="30.46" xlink:href="#radial-gradient-6"/><radialGradient id="radial-gradient-10" cx="124.18" cy="218.75" r="24.99" gradientTransform="matrix(1, 0, 0, 1, 0, 0)" xlink:href="#radial-gradient"/><radialGradient id="radial-gradient-11" cx="117.78" cy="198.09" r="22.25" xlink:href="#radial-gradient-6"/></defs><g class="cls-1"><g id="Слой_2" data-name="Слой 2"><g id="Слой_1-2" data-name="Слой 1"><g class="cls-2"><path class="cls-3" d="M191.76,310.68c-4.3-4.6-9.17-8.57-16.23-11-13-4.58-27.73-3-41.16-1.65-20.42,2-40.55,6.65-58.43,16-17.66,9.23-20.43,26.11-32.63,39.82C32.18,366.29,10,369.39,1.53,383.22-11.88,405.11,67.27,402,77.32,402.59c21,1.34,27.9,7.8,17,25.44,9.79,7.71,40-.11,51.21-2.72,23.22-5.4,46.81-17.07,67.32-28.73,13.12-7.41,30.34-18.56,39.91-30.51s1.91-18.34-9.94-22.52c-15.13-5.32-27-5.54-38.75-18.36C199.51,320.19,195.91,315.15,191.76,310.68Z"/><path class="cls-4" d="M56.54,359.18c8.19,4.22,18.62,7.48,27.86,7.33,13.86-.17,26.83-6.59,39.13,2.08,16.34,11.55,33.67,13.65,53.11,8,2.93-.85,5.51-3.17,8.33-3.79,3.16-.72,6.75.87,9.73-.4-8.54-16.21,11.77-1.15,18.13-.13-2.8-4.5-8.5-7.43-10.86-12.34,15.33,5.26,32.6,10.33,48.33,7.72-15.68-3.49-27.18-10-38.05-22.93-4.94-5.88-10.91-11.6-13.9-18.86-5.1-12.43-9.24-21.49-22.82-26.24-13-4.58-27.73-3-41.16-1.65-20.42,2-40.55,6.65-58.43,16-15.26,8-19.4,21.64-28.11,34.07C49.15,352.67,51.66,356.68,56.54,359.18Z"/><path class="cls-5" d="M165.27,375.78a61.77,61.77,0,0,0,19.41-24.56c1.17-4.16,2.52-8.24,4-12.31a76.11,76.11,0,0,0,0-30.74,30,30,0,0,0-13.17-8.51c-13-4.58-27.73-3-41.16-1.65l-1.13.13c-5.15,6.51-10,12.7-13.05,21.7-3.7,10.87-6.44,22-9.31,33.14-.65,3.7-1.25,7.38-1.78,11.09a24.65,24.65,0,0,1,14.43,4.52c12.65,8.93,25.88,12.18,40.22,10.62A4.09,4.09,0,0,1,165.27,375.78Z"/><path class="cls-6" d="M152.48,378.14c33.74-5.57,41.15-41.48,35.72-70.5a30.32,30.32,0,0,0-12.67-8c-13-4.58-27.73-3-41.16-1.65l-1.13.13c-5.15,6.51-10,12.7-13.05,21.7-3.7,10.87-6.44,22-9.31,33.14-.65,3.7-1.25,7.38-1.78,11.09a24.65,24.65,0,0,1,14.43,4.52,57.36,57.36,0,0,0,27.07,10.65A3,3,0,0,1,152.48,378.14Z"/><path class="cls-7" d="M195.55,322a30,30,0,0,0-20-22.35c-13-4.58-27.73-3-41.16-1.65-20.42,2-40.55,6.65-58.43,16-17.66,9.23-20.43,26.11-32.63,39.82C32.18,366.29,10,369.39,1.53,383.22c-9.82,16,30.46,17.88,37.89,18.39,15.43,1.1,33.55,5.64,48.11-2.34a8.05,8.05,0,0,0,2.72-2.42c1.86-2.4,2.9-5.37,5.4-6.37,3.16-1.28,9.71,0,13.18-.13.74-6.86-6.79-12.07-10.83-16.76-1.15-1.31,10.09-1.28,11.24-1.25a58,58,0,0,1,17.38,2.55c10.94,3.51,21.9,9.73,33.69,6.61,16.9-4.44,33.32-28.61,35.69-45.34A39,39,0,0,0,195.55,322Zm-38.61,26.65c-8.47,10.29-20.43,19.86-32.52,16.72a109.26,109.26,0,0,0-26.22-3.23c-12.33-.15-32.51-6.56-29.1-22.93,2.2-10.62,17.42-18.94,25.93-23.3,13.82-7.08,38.05-9,53.2-11.54,33.25-5.66,40.71,23.66,33.25,36C179.51,343.66,159.94,345,156.94,348.66Z"/><path class="cls-8" d="M177.29,320.09a21.58,21.58,0,0,0-6.68-3.73c-19.06-6.82-100.42-1.82-84.61,34.88,6.31,14.66,34.85,12.29,45.5,16.93,13.1,5.72,13.76,11.84,28.28,5.39C176.13,366.25,193.37,333.51,177.29,320.09Z"/><g class="cls-9"><path class="cls-10" d="M104,349.36c-2-11.22,5-24.2,14.49-32.59C96.23,321.45,77.7,332,86,351.24c5.57,13,28.52,12.6,41.14,15.57C116.42,363.71,105.75,359.35,104,349.36Z"/></g><path class="cls-11" d="M102,367.5c-12.64-7.15-36.13-8.07-37.16-26.65-.91-16.73,23.5-26.9,35.26-33.49.15-.1.08-.44-.12-.4-17.57,2.1-40.64,13.53-43.54,32.74-3.78,25.22,28.44,27.26,45.35,28.6C102.19,368.34,102.32,367.69,102,367.5Z"/><path class="cls-11" d="M12,332.49c-.8-.22-1.58-.49-2.33-.72a6.49,6.49,0,1,0,0,12.5c.75-.25,1.53-.47,2.33-.72A5.79,5.79,0,0,0,12,332.49Z"/><path class="cls-11" d="M47.72,358.09V366C70.53,366,70.53,358.09,47.72,358.09Z"/><path class="cls-11" d="M2.11,358.67v6.75C24.92,365.42,24.92,358.67,2.11,358.67Z"/><path class="cls-12" d="M124.2,225c-10.09-3.35-26.77-4-34.7,1.66-1.23.52-2.36,1.05-3.34,1.58-6.38,3.5-6,9.23.4,12.6,6.15,3.2,15.5,4.18,23.38,4.29,7.62.13,15.72-.62,21.83-3.42C143.06,236.41,133.59,228.09,124.2,225Z"/><path class="cls-13" d="M100.17,229c2-2.18,9.46-5.34,15.52-6-9.33-1.36-20.24-.68-26.19,3.61-1.23.52-2.36,1.05-3.34,1.58-6.38,3.5-6,9.23.4,12.6,6.15,3.2,15.5,4.18,23.38,4.29h.24C102.27,241.23,94.94,234.82,100.17,229Z"/><path class="cls-14" d="M116.85,222.48s-.1,0,0,.05c9.36,2.88,27,10.81,16.53,17.72-7.89,5.2-13.63,4-28.64,5.14-.18,0,8.08,2.67,20.71,1.71,5.34-.39,13.58-3.55,16-6.68C148.74,231,130.21,223.68,116.85,222.48Z"/><path class="cls-15" d="M154,250.36c-5.48-1.83-14.52-2.18-18.84.89a12.75,12.75,0,0,0-1.81.87c-3.45,1.89-3.26,5,.23,6.83,3.32,1.74,8.39,2.27,12.69,2.34,4.11.06,8.53-.34,11.87-1.84C164.28,256.57,159.16,252,154,250.36Z"/><path class="cls-13" d="M141,252.56c1.07-1.18,5.14-2.92,8.44-3.27-5.08-.71-11-.36-14.23,2a12.75,12.75,0,0,0-1.81.87c-3.45,1.89-3.26,5,.23,6.83,3.32,1.74,8.39,2.27,12.69,2.34h.14C142.12,259.17,138.16,255.7,141,252.56Z"/><path class="cls-14" d="M150.08,249c-.05,0-.07,0-.05,0,5.08,1.58,14.63,5.87,9,9.62-4.29,2.86-7.42,2.15-15.55,2.81a30.17,30.17,0,0,0,11.25.93c2.89-.22,7.37-1.93,8.69-3.63C167.38,253.64,157.34,249.64,150.08,249Z"/><path class="cls-16" d="M78.17,213.79c-5.49-2.41-14.55-2.92-18.85,1.21a13,13,0,0,0-1.8,1.15c-3.48,2.51-3.28,6.68.22,9.11,3.32,2.32,8.4,3,12.69,3.11,4.13.09,8.54-.44,11.85-2.49C88.43,222.08,83.26,216,78.17,213.79Z"/><path class="cls-13" d="M65.11,216.72c1.07-1.58,5.15-3.88,8.44-4.33-5.07-1-11-.5-14.23,2.61a13,13,0,0,0-1.8,1.15c-3.48,2.51-3.28,6.68.22,9.11,3.32,2.32,8.4,3,12.69,3.11h.14C66.25,225.57,62.29,220.91,65.11,216.72Z"/><path class="cls-14" d="M74.18,212s-.05,0,0,0c5.08,2.07,14.64,7.82,9,12.85-4.28,3.74-7.39,2.84-15.55,3.7-.11,0,4.37,2,11.23,1.24,2.91-.28,7.39-2.58,8.71-4.85C91.51,218.15,81.44,212.84,74.18,212Z"/><path class="cls-17" d="M48.81,160.74c-6.61-3.7-17.57-4.45-22.74,1.83a18.12,18.12,0,0,0-2.18,1.79,9.24,9.24,0,0,0,.27,13.9c4,3.57,10.14,4.63,15.32,4.79,5,.14,10.29-.69,14.3-3.83C61.17,173.44,55,164.19,48.81,160.74Z"/><path class="cls-4" d="M33.06,165.24c1.3-2.4,6.2-5.9,10.16-6.64-6.1-1.5-13.27-.76-17.15,4a18.12,18.12,0,0,0-2.18,1.79,9.24,9.24,0,0,0,.27,13.9c4,3.57,10.14,4.63,15.32,4.79h.15C34.42,178.75,29.64,171.63,33.06,165.24Z"/><path class="cls-18" d="M44,158a0,0,0,0,0,0,.09c6.1,3.16,17.64,11.93,10.82,19.6-5.17,5.77-8.95,4.38-18.77,5.69-.12,0,5.28,2.95,13.56,1.91,3.52-.47,8.91-4,10.49-7.42C64.89,167.42,52.75,159.31,44,158Z"/><path class="cls-19" d="M128,234.1c-1.87-9.4-22-7.7-27.25-4-4.18,2.94-5.22,8.63-1,11.89,5.39,4.16,27.82,3.64,28.37-6A7.76,7.76,0,0,0,128,234.1Z"/><path class="cls-20" d="M198,68.61c-25.39,6.52-35.34,41.75-40.22,63.49-7.36,32.92-5.92,68.46-5.34,101.91.71,39.26,0,83.25,3.65,117.45h.36c1-57,.66-109.83,9.48-165,3.43-21.52,7.73-43.3,14-64.15,4.82-16,24.68-52.52,39.58-23.6a2,2,0,0,0,3.68-.46C226.77,80.49,219.3,63.13,198,68.61Z"/><path class="cls-21" d="M127.51.44c-8-2.94-13.16,9.74-5.72,13.61,13.09,6.78,16.88,17.5,20.8,31.12.09.25.49.2.47-.06C142.44,29.37,145.84,7.21,127.51.44Z"/><path class="cls-22" d="M210.6,19.18c-12.73-1.86-26.76,7.18-34.56,17a48.83,48.83,0,0,0-11,33.58.23.23,0,0,0,.45.08c3.39-9.91,10.69-17.12,20.17-21.24,4.49-1.94,8.87-3.64,13.5-5.19,4.81-1.64,9.8-1.74,14-4.76C219.65,34,220.72,20.65,210.6,19.18Z"/><path class="cls-23" d="M182.7,86.09c-23.06,18.07-17.9,54.09-21,79.95,0,.22.33.26.37.07,5.88-23.73,5.84-55.35,27.18-71.55C195.41,89.82,188.82,81.3,182.7,86.09Z"/><path class="cls-24" d="M132.71,81.46c-4-13.64-10.78-25.4-21.63-34.61-9.12-7.76-27.59-12.6-36.86-3.19-4.74,4.81-3.07,11.71,2.89,14.41,9.54,4.32,18.54.44,27.89,7.45,9.94,7.43,16.19,21.2,21.22,32.15,10.58,23,14,47.22,19.62,71.58a.25.25,0,0,0,.49-.09C141.77,140.05,141,109.83,132.71,81.46Z"/><path class="cls-25" d="M102,50.21c-5.24-4.06-26.13-14.23-26.85.21-.47,9.17,14.56,7,19.92,8,9.79,1.92,19.86,6.24,25.69,15.45a.52.52,0,0,0,.93-.45C118.34,64.35,109.41,56,102,50.21Z"/><path class="cls-26" d="M202.3,25.8c-12.05,5.68-24.1,15-31.63,26-.11.17.17.35.3.17,8.61-12.84,23.2-12.59,35.58-18.89C211.41,30.59,207.13,23.5,202.3,25.8Z"/><path class="cls-27" d="M125,191.08c-10.2-5.53-25.83-1.12-16.66,12.19a5.11,5.11,0,0,0,6.82,1.79c9.87-5.4,18.17,11.13,20.87,18.11,3,7.68,4.12,17.21,4.58,25.58C145.4,230.56,143.62,201.21,125,191.08Z"/><path class="cls-28" d="M125.72,196.51a16.59,16.59,0,0,0-10.08-4.61c-6.15-.66-4.87,10.44,1.11,8.28,5-1.8,12.21,1.66,14.72,6.28a.18.18,0,0,0,.3-.18C130.14,202.54,128.74,199.38,125.72,196.51Z"/></g></g></g></g></svg>