<svg xmlns="http://www.w3.org/2000/svg" xmlns:xlink="http://www.w3.org/1999/xlink" viewBox="0 0 79.63 81.29"><defs><style>.cls-1{isolation:isolate;}.cls-10,.cls-13,.cls-15,.cls-2,.cls-4{fill:#6d3902;}.cls-3{fill:#ad6512;}.cls-4{opacity:0.33;}.cls-5{fill:url(#linear-gradient);}.cls-6{fill:#deac39;}.cls-7{fill:#fcf8c3;}.cls-8{fill:#fff994;}.cls-9{fill:#8f4900;}.cls-10{opacity:0.32;}.cls-11{fill:#f3e090;}.cls-12{fill:#fad41d;}.cls-13{opacity:0.35;}.cls-14{fill:#f8f6c8;}.cls-14,.cls-16{mix-blend-mode:overlay;}.cls-15{fill-rule:evenodd;}.cls-16,.cls-17{fill:#fff;}.cls-16{opacity:0.37;}</style><linearGradient id="linear-gradient" x1="39.81" y1="-10.18" x2="39.81" y2="78.27" gradientUnits="userSpaceOnUse"><stop offset="0" stop-color="#fbe207"/><stop offset="1" stop-color="#cc7c15"/></linearGradient></defs><g class="cls-1"><g id="Слой_2" data-name="Слой 2"><g id="Слой_1-2" data-name="Слой 1"><path class="cls-2" d="M79.63,38.41V36.18h-.06a37.1,37.1,0,0,0-6.93-19.53l.09-.06-1.14-1.44A40.17,40.17,0,0,0,40.89,0H39.81A40.32,40.32,0,0,0,11.88,11,37.52,37.52,0,0,0,.07,36.18H0v7.27C0,64.32,17.86,81.29,39.81,81.29s39.82-17,39.82-37.84v-5ZM39.81,78C19.71,78,3.36,62.5,3.36,43.45v-5.6C3.67,18.79,20,3.29,39.81,3.29h1A36.84,36.84,0,0,1,67.74,15.74h0l1.14,1.45a34,34,0,0,1,7.39,20.66v5.6C76.27,62.5,59.91,78,39.81,78Z"/><path class="cls-3" d="M77.74,37.82c-2-26.14-20.67-36-37.93-36-15.37,0-36,9.63-37.93,36h-.2v5.63c0,20,17.07,36.19,38.13,36.19S78,63.44,78,43.45V37.82Z"/><path class="cls-4" d="M39.88,78C18.82,78,1.73,61.46,1.5,40.94c0,.42,0,.85,0,1.28,0,20.71,17.19,37.5,38.39,37.5s38.39-16.79,38.39-37.5c0-.43,0-.85,0-1.28C78,61.46,60.94,78,39.88,78Z"/><path class="cls-5" d="M74.77,39.69c0,19-15.65,34.37-35,34.37s-35-15.39-35-34.37,15.66-34.38,35-34.38S74.77,20.7,74.77,39.69Z"/><path class="cls-6" d="M2.79,29.42S6.26,28.3,6.33,29s3.24-6.51,6.4-9.38a28.13,28.13,0,0,0,4.2-4.46,6,6,0,0,0,5.39-1.62c2.34-2.36,3.42-3.68,3.42-3.68s13-4.56,21.47-2.36,18.06,9.86,18.06,9.86l2.51-1.52.33-2.74A38.36,38.36,0,0,0,42.31,2C25.92,1.4,19,7.57,13.71,11.6S2.79,29.42,2.79,29.42Z"/><path class="cls-7" d="M39.81,7.28c19,0,34.41,14.86,34.94,33.39,0-.33,0-.65,0-1,0-19-15.65-34.38-35-34.38s-35,15.39-35,34.38c0,.33,0,.65,0,1C5.41,22.14,20.84,7.28,39.81,7.28Z"/><path class="cls-8" d="M39.81,72.6c-19,0-34.54-15-34.94-33.64,0,.24,0,.48,0,.73,0,19,15.66,34.37,35,34.37s35-15.39,35-34.37c0-.25,0-.49,0-.73C74.36,57.61,58.87,72.6,39.81,72.6Z"/><path class="cls-6" d="M25.15,8s1,2.9-2.79,5.36-5.77,0-5.77,0Z"/><path class="cls-3" d="M19.77,12.89H17.92l-1,.74s1.15,1.3,3.62.56a6.58,6.58,0,0,0,4.06-3.1C25,10.29,21.36,12.89,19.77,12.89Z"/><path class="cls-2" d="M32.41,5.45s.12,1.56-2,2.31S27.52,7,27.52,7Z"/><path class="cls-9" d="M29.14,7.22,28.23,7l-.59.24A1.75,1.75,0,0,0,29.37,8a3.32,3.32,0,0,0,2.39-1C32,6.59,29.93,7.42,29.14,7.22Z"/><path class="cls-3" d="M48,74.05s-.37-2.24,2.68-3.59,4.21.67,4.21.67Z"/><path class="cls-4" d="M51.32,70.54a10.48,10.48,0,0,0-1.52,1.63,1.14,1.14,0,0,1-.86.79,3.65,3.65,0,0,1-.82.16,4.59,4.59,0,0,1,2-2.43,6.3,6.3,0,0,1,2.39-.7Z"/><path class="cls-10" d="M70.71,54.14a21.75,21.75,0,0,1-2.42,2.2c-.85.67-1.73,1.3-2.62,1.89s-1.83,1.14-2.78,1.65a21.65,21.65,0,0,1-3,1.34A20.9,20.9,0,0,1,62.33,59,32.08,32.08,0,0,1,65,57.14c.9-.59,1.82-1.15,2.78-1.66A22.33,22.33,0,0,1,70.71,54.14Z"/><path class="cls-11" d="M71,53.82A36.93,36.93,0,0,1,64.51,59a39,39,0,0,1-4.87,2.27,25.8,25.8,0,0,0,5.67-2.1C67.77,57.76,71,53.82,71,53.82Z"/><path class="cls-2" d="M68.33,55.91s-3.86,2.18-4.43,2.53-2.65,1.84-2.65,1.84S65.75,58.74,68.33,55.91Z"/><path class="cls-2" d="M70.34,61.76l-2.7.54h-1.5s1,.17,1.38.26,1.57.13,1.68.45-.48,1.52-.22,1.35A20.71,20.71,0,0,0,70.34,61.76Z"/><path class="cls-12" d="M67.52,62.56l-1.45-.18,1.35.38a11.91,11.91,0,0,0,1.69.14A10.35,10.35,0,0,0,67.52,62.56Z"/><path class="cls-2" d="M51.39,78.63l1-4.61-.09-2.5s.42,1.66.62,2.27.37,2.61,1,2.74,3.15-1,2.8-.59S51.39,78.63,51.39,78.63Z"/><path class="cls-12" d="M52.89,73.79l-.6-2.4s1,2.08,1,2.2a14,14,0,0,1,.4,2.8A13.4,13.4,0,0,1,52.89,73.79Z"/><path class="cls-13" d="M49.45,78.55s1.74-3.45,1.85-3.81,1-3.35,1-3.35L52.54,74,52,77.73Z"/><path class="cls-2" d="M31.63,2.47c.05.08,1,2.71.78,3a50.24,50.24,0,0,1-4.77,1.79L25.87,3.48S30.91,1.39,31.63,2.47Z"/><path class="cls-2" d="M57.07,3.74s.1,5.21.59,5.58,8.48,1.35,8.9,1.4S65.22,7.77,57.07,3.74Z"/><path class="cls-14" d="M65.22,10.4s-7.22-.93-7.39-1A4.21,4.21,0,0,1,57.12,7c0-1,0-2.08,0-2.08s0,2.55,0,3.48a2.83,2.83,0,0,0,.81,1.79l7.76.51Z"/><path class="cls-3" d="M74.17,28.49a3.37,3.37,0,0,1-3.38-1.35c-1.15-1.82.91-2.78.91-2.78Z"/><path class="cls-3" d="M70.91,26.74a2.81,2.81,0,0,0,1.76.83s0,.09.07.41a3,3,0,0,1,.14.53,3.06,3.06,0,0,1-1.89-1,2.4,2.4,0,0,1-.55-1.46A7.37,7.37,0,0,0,70.91,26.74Z"/><path class="cls-3" d="M8.86,57.18s1.48-.87,3.1,1.24.46,3.57.46,3.57Z"/><path class="cls-4" d="M12,58.92a7.88,7.88,0,0,0-1.48-.81.82.82,0,0,1-.74-.48A3.15,3.15,0,0,1,9.53,57a3,3,0,0,1,2.13,1,5.64,5.64,0,0,1,1,1.75Z"/><path class="cls-2" d="M5.17,30.83,9,34.49,11.48,36S9.65,35.27,9,35s-2.7-1.4-3.21-1-.76,3-1,2.43S5.17,30.83,5.17,30.83Z"/><path class="cls-12" d="M9,35l2.56,1.2s-2.47-.72-2.6-.77A21,21,0,0,1,6,34,20.31,20.31,0,0,1,9,35Z"/><path class="cls-3" d="M6.34,29.58S8.67,33.07,9,33.38,11.48,36,11.48,36L9,34.49,5.7,32Z"/><path class="cls-2" d="M2.13,29.16c.16-.26,3,1.67,3,1.67l-.43,5.64L1.21,37.8S.37,32,2.13,29.16Z"/><path class="cls-2" d="M74.59,22.69s-3.26,1.87-3.45,2-.85,1.47-.62,1.84a13.44,13.44,0,0,0,.88,1.12s-.52-2.05-.26-2.16,1,.34,1.79.37,3.8-1.47,3.8-1.47Z"/><path class="cls-15" d="M66.84,41c-2.36,0-6.08.36-14,3C54,31.75,58.33,26.71,67.69,26.71a18.93,18.93,0,0,1,3.53.33,34.81,34.81,0,0,0-1.43-3.25c-.7-.06-1.42-.1-2.11-.1-5.11,0-10.55,1.85-16.31,3.81C44.91,29.71,38.21,32,31.18,32,23.7,32,16.3,29.64,8.54,24.81c-.43.93-.81,1.88-1.16,2.85a51.66,51.66,0,0,0,12.73,5.75,15.34,15.34,0,0,0-6.74,11.9A56.85,56.85,0,0,1,5.51,40.8,33.64,33.64,0,0,0,6,44.71a51.19,51.19,0,0,0,13.19,6,14.81,14.81,0,0,0-6.33,9.31A33.37,33.37,0,0,0,15.45,63c.43-6.64,4.94-10.65,9.11-11.09a37.62,37.62,0,0,0,10.12.13c-3.56,4.23-5.7,11-6,19.11,1,.33,2,.62,3,.86.4-14.4,5.9-20.56,11-21.52,3.22-.86,6.21-1.89,9.09-2.88l1.54-.53c-4.68,6.37-4.8,16.73-4.8,24.6a28.23,28.23,0,0,0,3-1c0-12.67.38-26.64,15.33-26.64a18,18,0,0,1,6,1c.19-1,.32-2,.41-3.08A21.47,21.47,0,0,0,66.84,41ZM16.35,46.59c.06-7,4.69-11.55,9.17-12a39.17,39.17,0,0,0,10.1.13c-2.85,3.38-4.8,8.37-5.64,14.54A37.89,37.89,0,0,1,16.35,46.59Zm33.32-1.47c-5.65,1.93-10.82,3.56-16.6,4,1.24-8.37,4.62-14.06,9.29-15.64,3.52-.88,7.51-2.24,10.71-3.35l1.11-.37C50.85,34.28,50,40.57,49.67,45.12Z"/><path class="cls-16" d="M65.81,28.69a69.8,69.8,0,0,1,7.42.39A34.91,34.91,0,0,0,40,5.31C20.67,5.31,5,20.7,5,39.69A33.77,33.77,0,0,0,10.43,58C21.17,40.55,41.94,28.69,65.81,28.69Z"/><path class="cls-17" d="M43.5,8.94c-8.66.19.29,8,6.71,6.71S50,8.8,43.5,8.94Z"/></g></g></g></svg>