<svg xmlns="http://www.w3.org/2000/svg" viewBox="0 0 361.14 302.13"><defs><style>.cls-1{opacity:0.04;}.cls-2{fill:#5c300d;}.cls-3{fill:#528109;}.cls-4{fill:#80b517;}.cls-5{fill:#99c71c;}.cls-6{fill:#6b390f;}</style></defs><g id="Слой_2" data-name="Слой 2"><g id="Слой_1-2" data-name="Слой 1"><g class="cls-1"><path class="cls-2" d="M205.63,28.83c-1.75,11.55-.16,26.45-9.64,34.51a64.35,64.35,0,0,0-10,10.1c-3.82,5.06-10.3,9.81-13.07,15.45,1.94.6,5.05,4.07,6.72,4.13,1.85.07,3.44-4.07,4.31-5.14a117.22,117.22,0,0,1,10.58-10.8c4.9-4.59,8.43-5.2,15-6.56,5.5-1.14,12.87-2.71,18.49-2.43,1.84-4.86,6.22-9.55,7.32-14.3-1.55,2.08-4.15,1.69-5.75,3.09-2.15,1.88-3.68,6.27-5.07,8.79-6.28-1.38-16.2-1.31-22.37.4,2.44-5.74,8.83-15.4,8-21.42C209.68,40.62,205.7,34.46,205.63,28.83Z"/><path class="cls-2" d="M99.4,76.14c1.33,4.84,5.46,12.59,10.47,14,3.58,1,19.57-.69,17.54,5.13-3.84.29-7.5-.68-11.31-1.06-2.77-.27-9.47,1.19-11.9-.29C99.94,91.37,96.9,82.87,99.4,76.14Z"/><path class="cls-2" d="M166.51,212.87c1.09,5.41,1,11.21,1.18,17s.51,11.46,2.45,16.71a103.54,103.54,0,0,0,4.67,10.29A90,90,0,0,1,179.32,267a37.46,37.46,0,0,1,1.6,7.7c.33,2.64.58,5.31,1.09,7.86.3,1.5.69,3,1.05,4.47a31.34,31.34,0,0,1,.8,4.53c.28,3.11-.43,4.43-1.87,5.16s-3.64.86-6.34,1.6a122.83,122.83,0,0,1-13.09,3.06,49.11,49.11,0,0,1-13.39.51,63.38,63.38,0,0,1-9.27-1.71c-3.46-1-6.49-2.37-6.67-4.32a79.81,79.81,0,0,1,.73-20.48A68.36,68.36,0,0,1,140.18,256c2.47-4.92,3.23-10.2,3.32-15.58s-.47-10.87-.66-16.2c-.1-2.72.11-4.68-.13-6.45a8.68,8.68,0,0,0-2.84-5.25,33.93,33.93,0,0,1-3.57-4,11.2,11.2,0,0,1-2-4.52c-.31-1.55-.31-2.74-.56-3.86a6.59,6.59,0,0,0-2-3.46,12.56,12.56,0,0,0-5.48-3,24,24,0,0,0-6.23-.81c-3.78,0-7.64.49-11.39.39A18.27,18.27,0,0,1,97.84,190a7.5,7.5,0,0,1-3.28-5.54c-.3-1.94-.36-4-1.82-6.11-1.73-.27-3.69-.44-5.65-.58s-4-.26-5.74-.4a26.67,26.67,0,0,1-5.74-1.19c-1.83-.55-3.64-1.19-5.6-1.65-.74-.18-2.16-.21-3.55-.36s-2.72-.4-3.31-1c-1-1-1.12-3.05-1.16-5.16s0-4.34-.49-5.82a9.36,9.36,0,0,0-1.41-2.64,9.69,9.69,0,0,0-2.24-2.06,51.27,51.27,0,0,1-5.47-3.88,12.6,12.6,0,0,1-3.24-5.69c-1.23-3.71-.55-3.3.68-1.69s3,4.41,4,5.48a9.85,9.85,0,0,0,4.13,2.54,23.05,23.05,0,0,1,4.76,2.1,9.86,9.86,0,0,1,1.65,1.12c.24.25.37.58,1,1.58a10.59,10.59,0,0,1,.89,2A4.58,4.58,0,0,0,67.5,163,45.41,45.41,0,0,0,70.77,158a23.51,23.51,0,0,1,3.55-4.81,22.05,22.05,0,0,1,3.59-2.45,8.66,8.66,0,0,0,3.24-3.13,8.07,8.07,0,0,0,.66-2.4,5.55,5.55,0,0,1,1-2.5c1.67-2.13,4.44-3.1,7.35-3.8s6-1.14,8.21-2.19c1-.47,2.54-4,3.7-6.27s1.93-3.09,1.41,1.85c-.08.76-.15,2.36-.3,3.92a10.84,10.84,0,0,1-.78,3.73A9,9,0,0,1,99,142.31c-1.46.74-3,1.37-3.84,1.79A10.89,10.89,0,0,0,91,147.48a27.44,27.44,0,0,0-2.57,5.14,11.41,11.41,0,0,1-4.1,5.14c-1.66,1.17-3.62,2.07-5.92,3.47a19.3,19.3,0,0,1,.5,3.26,6.37,6.37,0,0,0,1,3.08,3.17,3.17,0,0,0,3,1.14,40.26,40.26,0,0,1,4.26-.34c1.27,0,2.78-.05,4.27-.1a23.36,23.36,0,0,1,4.16.1,4.76,4.76,0,0,1,3,1.37c.73.72,1.4,1.7,2.66,3,3.48,3.64,8.07,3.47,12.9,2.74s9.91-2,14.38-.64c2.92.92,5.8,2.91,8.62,5a82.68,82.68,0,0,0,8.27,6c1.74-1.45,2-4.36,1.86-7.4s-.75-6.22-.75-8.2c0-2.74-.25-5.47-.06-8a11.76,11.76,0,0,1,2.65-7.1c2.29-2.65,5.12-5.24,7.55-8.06s4.45-5.89,5.1-9.51a37,37,0,0,0,.36-7.3,46.3,46.3,0,0,0-.77-7.39c-.61-3-2.87-5-5.3-6.86s-5-3.72-6.32-6.48a30.8,30.8,0,0,0-2-4.07,11.89,11.89,0,0,0-3.36-3.13,24.93,24.93,0,0,1-3-2.08,2.28,2.28,0,0,1-.32-3.09,15.21,15.21,0,0,1,5,3.69,28.58,28.58,0,0,1,3.75,5,19.77,19.77,0,0,1,1.05,2.24,5.82,5.82,0,0,0,1.37,2,21.08,21.08,0,0,0,5.62,3.49,52.47,52.47,0,0,1,6,3.07c4,2.64,4.56,7.13,4.17,12s-1.7,10-1.34,14.06a97,97,0,0,0,11.06,0c3.75-.18,7.49-.51,10.94-.87,3.83-.39,7.2-2.51,10.66-4.6s7-4.16,11.19-4.48c1.79-.13,4.09.07,6.34,0a11.16,11.16,0,0,0,6.13-1.51c1.34-.92,2-3.05,2.87-4.8s1.92-3.11,4-2.51a13.29,13.29,0,0,0-3.22,4.94c-.74,1.83-1.26,3.8-1.9,5.77.85.32,1.72.61,2.59.88s1.75.53,2.63.78c4.24,1.22,8.48.75,12.77-.14s8.63-2.2,13.08-2.66c1.52-.16,3.09-.2,4.67-.26s3.17-.13,4.71-.33a24.11,24.11,0,0,0,3.53-.92,7.51,7.51,0,0,1,3.28-.42,6.44,6.44,0,0,1-.12,1.28,9.85,9.85,0,0,1-.29,1.3,15,15,0,0,0-6.34.3c-2.23.47-4.46,1.12-6.36,1.41-2.2.34-4.39.52-6.57.78a40.29,40.29,0,0,0-6.49,1.21c-4.13,1.21-7.68,2.92-11.26,4.08a20.45,20.45,0,0,1-11.43.79c-5.56-1.3-9.13-1.14-12.5,0s-6.53,3.34-11.29,6.1a22.79,22.79,0,0,1-7,2.51c-2.34.5-6.38-.5-8.91.33-4.79,1.56-17.21-.54-19.85,3.07s-11.46,25.9,6.33,19.19c2.82-1.58,5.67-3.45,8.57-5.25a64.81,64.81,0,0,1,8.94-4.79,28.25,28.25,0,0,1,9.57-1.76c3.39-.16,6.9-.07,10.24-.29,2.14-.14,4.83-.54,7.51-.83a35.34,35.34,0,0,1,7.43-.24,19.62,19.62,0,0,1,6.75,2.72,58.76,58.76,0,0,0,6.68,3.56c2.7,1.05,5.58,2.15,8.52,3a35.9,35.9,0,0,0,8.9,1.54,51.56,51.56,0,0,0,8.32-.74,30.58,30.58,0,0,1,8.39-.24,55,55,0,0,0,7.46.53c2.5,0,5-.08,7.72-.25a108.56,108.56,0,0,1,14.66.33,138.58,138.58,0,0,0,14.5.57c3.57-.11,6.76-1.56,10-2.92s6.62-2.65,10.5-2.44c.05.22.11.48.15.73s.09.52.12.75a29.68,29.68,0,0,0-3.85-.27,12.48,12.48,0,0,0-3.65.71,39,39,0,0,0-6.53,3.18,23.26,23.26,0,0,1-6.64,2.77c-3.1.62-6.22.28-9.35.33-2.52,0-4.91-.5-7.49-.13-2,.29-4,.74-6,.91-2.22.2-6-.48-7.91,1-.79.59-1.22,3.06-1,4,.45,2.39,2.79,3.84,4.6,5.11s3.62,2.18,5.29,3.44c2,1.52,4.79,1.78,7.21,2,3.46.36,7.16-.58,10.56.21a16.18,16.18,0,0,0,.25,2.3,30.54,30.54,0,0,1-7.21.36c-1.86-.05-3.52.33-5.4.17a24,24,0,0,1-9.76-3.55c-3.14-1.83-6.12-4.08-8.78-6-1.42-1-2.85-2-4.31-2.86a45.92,45.92,0,0,0-4.48-2.4c-5.43-2.55-11.24-2.33-17.07-1.94s-11.67.95-17.18-.9a26.88,26.88,0,0,1-4.09-2.1c-2.14-1.19-3.94-1.13-6.23-1.58s-4.15-1.79-6.29-2.47c-3.71-1.18-8-2.93-11.81-2.25a50.11,50.11,0,0,0-12.89,4.29c-3.6,1.82-6.16,6.32-8.73,9.39s-6.24,5.48-8.6,8.54a58.52,58.52,0,0,0-4.21,6.77,4.18,4.18,0,0,0-.38,3.61c.41,1.91.29,2.8,2.25,2.13,1.64-.55,3-2.07,4.61-2.77a53,53,0,0,1,8.38-3.16c4.65-1.12,9.2-2.7,13.91-3.82a52.15,52.15,0,0,1,7.38-1c.11,2.44,1.08,3.82-1.57,4.49a81.92,81.92,0,0,0-11.54,3.78,64.45,64.45,0,0,0-12.41,6.82c-1.6,1.13-3.45,2.95-5.36,4.51s-3.85,2.87-5.64,3a9.36,9.36,0,0,1-3.12-.62C168.52,213.54,167.41,213.1,166.51,212.87Z"/><path class="cls-3" d="M67.41,103.15c-9.81-8.87-30-10-39.56-5-12.46,6.46-20.53,22.88-14,35.74C-7.54,149.54-4,185.62,23.65,191.63c11.19,2.43,25.25-2.15,33-10.59,6.71-7.3,10.47-18.41,10.87-28.15.21-5.42-2.15-12.47-.78-16.92,2.48-8.07,7.24-12.83,6.15-22.48A16.17,16.17,0,0,0,67.41,103.15Z"/><path class="cls-3" d="M60.91,116.42c13.43-21.27,40.78-11.37,49.4,8.37,17.62-3.09,25.19,13.79,22.31,28.75-3.79,19.65-27.52,20.25-43.61,18.78C63.17,170,52.7,143.16,60.91,116.42Z"/><path class="cls-3" d="M167.54,65.21c.83-7.1-8.09-15.55-13.54-16.34-8.31-1.2-16.14,2.66-22.35,7.92C118.56,67.88,115.22,80.54,121,95.87c-15.49,3.9-22.41,19.55-15.43,33.65,5.07,10.23,15.21,12.4,25.84,12.79,7.53.28,28.85-2.12,30.8-11.36,11.43-.78,20.55-3.3,27.41-13.43,7.51-11.06,6.69-24.3-.85-34.77a72.92,72.92,0,0,0-12.33-12.93C171.82,65.94,170.46,67,167.54,65.21Z"/><path class="cls-3" d="M217.86,141.68c-14.87.62-25.38-19-20.34-32.2s28-23.21,41.25-17.17C247,80.46,262.21,80.2,275,84.55c9,3.08,13,8.61,17.47,16.24,14.46-4.13,23.13,18.15,21.66,29.59-1.81,14.11-15.36,25.27-29.37,25.71-6.88.21-14-1-20.84-1.77-4.77-.51-5.27-.11-10.17,1.12C243.87,157.91,220.25,152.92,217.86,141.68Z"/><path class="cls-3" d="M300.84,177.16c-22.17-22.64,48.06-42.64,48.75-17.56,11.7,2.33,15.58,16.41,6.61,24.19-8,6.94-21.26,7.74-31.08,5.4C321.77,188.4,303.74,182.91,300.84,177.16Z"/><path class="cls-3" d="M208.24,55.09c-4.73,2.37-13.6-2.56-17.79-4.48-10-4.6-24.4-13-21.95-26.26,4.11-22.29,30.57-19.58,45.42-22.78,13.52-2.92,26.19-2.64,36.9,8.56A32.58,32.58,0,0,1,260,31.71c.19,3.22,1.8,8.58,1.15,11.72C257.16,62.5,222.91,65.71,208.24,55.09Z"/><path class="cls-3" d="M97.59,49.68c-16-5.83-44.25,23.24-24.25,32.6-3.11,4.46.4,7.83,4.66,9.37,8.26,3,18.34.2,24.4-5.63s9.74-13.91,7.5-22.3C108.11,57,102.81,51.4,97.59,49.68Z"/><path class="cls-4" d="M27.85,98.15c-12.46,6.46-20.53,22.88-14,35.74C-5.68,148.17-4.38,179.41,17,189.34c8.78-1.78,16.91-8.24,22.63-16.64A55.64,55.64,0,0,0,48.22,149c.61-5-1.47-9.93-.79-14.45C48.54,127.11,53,120,54.16,112.3c1-6.7.62-11.41-.77-15.86C44.18,94.31,33.92,95,27.85,98.15Z"/><path class="cls-5" d="M13.8,133.89c-15.36,11.26-17.6,32.92-7.46,46.5,12-4.63,21.28-20.43,23.07-32.42.95-6.34.47-12.65-2.36-18.48-3.07-6.34-2.6-4.71.76-11.16,3.16-6.08,2.93-14,.13-20.21l-.09,0C15.39,104.61,7.32,121,13.8,133.89Z"/><path class="cls-4" d="M132.62,153.54c2.88-15-4.69-31.85-22.31-28.76-8.62-19.73-36-29.63-49.4-8.36-4.77,15.55-3,31,4.15,41.74a17.62,17.62,0,0,0,2.27,1.1c11,3.5,30.84,1.94,37.69-9,4,7.86,13.28,13.12,22.23,13.67A20.34,20.34,0,0,0,132.62,153.54Z"/><path class="cls-5" d="M81.37,110.31c-6,1.56-11.46,3.25-15.63,8-3.49,4-5.44,9.51-3.16,14.62,4.49,10.11,17.31,13.17,26.58,8.67,3.37-1.63,3.85-2.08,7.73-.85,5.79,1.85,11.3,4.83,17.62,3.84,4.76-.74,8.3-3.4,5-8s-10-5.31-15-7.45C99.43,127,96.4,121.45,93.35,117,90.12,112.35,87.42,108.75,81.37,110.31Z"/><path class="cls-4" d="M82.44,77.48c5.5-1.8,10.94-6,16.44-7.13,3.76-.77,6.86.26,10.53-2.21.35-.24.53-.54.85-.79a18,18,0,0,0-.36-3.63c-1.79-6.71-7.09-12.32-12.31-14C82.66,44.26,57.24,69.05,69.91,80.06A49.73,49.73,0,0,0,82.44,77.48Z"/><path class="cls-5" d="M89.6,52.92c-5.16,2-25.22,15-15.59,21.27,5.1,3.34,11.76-1.68,15.93-4.27,2.81-1.74,5-3.31,7.88-4,3.06-.72,9.05-.3,8.91-5.14-.12-4.32-6-8.11-9.82-8.7C93.77,51.59,90.87,53.13,89.6,52.92Z"/><path class="cls-4" d="M177.35,84.54c2,2.67,3.61-6.23,3.37-7.76C179,65.76,164.87,50.44,154,48.87c-8.31-1.2-16.14,2.66-22.35,7.92C118.56,67.88,115.22,80.54,121,95.88a24.64,24.64,0,0,0-7.62,3.44,17.08,17.08,0,0,0-2.69,1.87,22.2,22.2,0,0,0-2.94,3,19.17,19.17,0,0,0-1.12,1.7c-.31.46-.59.94-.86,1.43-2.63,5.21-2.4,11.14,4.06,13.84,8.13,3.4,25.66,1.6,30.3-7.28,3,8.3,18.95,10.83,25.63,7C177,114.57,186.19,96.11,177.35,84.54Z"/><path class="cls-5" d="M146,56.63c-8.29,1.78-14.85,10.59-17.47,18.22A29.61,29.61,0,0,0,127.08,87c.21,2.63,1.54,5.75.62,8.07-2.07,5.25-9.7,8.58-6.38,15.56,4.13,8.66,15-1.16,19.51-4.47,7.44,5.37,12.92,11.31,23.14,5.27,12.31-7.27,10.16-19.37,2.13-28.34,7.83-5.68.45-18.3-6.44-21.27C153.8,59.28,150.58,55.28,146,56.63Z"/><path class="cls-4" d="M260,31.71a32.58,32.58,0,0,0-9.16-21.58c-10.71-11.2-23.38-11.48-36.91-8.56C207.25,3,198.27,3.34,190,5.19a30.1,30.1,0,0,0-7.67,6.06c-5.7,6.73-7.21,18.93.15,25,9.48,7.87,21,9.11,32.88,8.16,6.44-.51,12.87-3.84,19-1.65C257.36,51,260.12,34,260,31.71Z"/><path class="cls-5" d="M226.58,3.18c-8.07-2.55-18.53,1.25-25.86,4.94-6.23,3.14-13.58,4.35-13.24,12.83.55,13.54,21.31,14.18,30.81,11.13,5-1.59,8.2-2.5,13.05-.69,6,2.24,14,3,18.7-2.39,5.41-6.17-1.48-15.14-5.93-19.72C238.06,3.07,231.46,4,226.58,3.18Z"/><path class="cls-4" d="M311.6,138.3a26.29,26.29,0,0,0,2.48-7.92c1.47-11.44-7.2-33.72-21.66-29.59C287.93,93.16,284,87.63,275,84.55c-12.74-4.35-28-4.09-36.18,7.76C226.46,86.67,205.84,95,199,106.9a14.71,14.71,0,0,0,1.05,9c3.41,7.16,10.68,12.35,18,15,6.42,2.3,13.45,1.12,19.2,4,9.37,4.64,19.68,9.71,30.16,10.6,7.36.62,14.63-1.43,21.65-1.5C296.3,143.88,304.77,142.16,311.6,138.3Z"/><path class="cls-5" d="M281.22,92.56c-5.6-6.94-15.9-9.07-24.38-6.92a28.74,28.74,0,0,0-12.26,7.19c-1.41,1.32-2.51,3.4-4.26,3.9s-5.12-.65-7.11-.75c-5.31-.26-12.81-.34-17,3.34a12.39,12.39,0,0,0-3.18,15c5.16,9.76,19.8,11.36,29.46,10.41,2.4-.24,5.47-1.44,7.6-1,5.41,1,11.58,4.19,17,5.86,4.85,1.52,10.18,3,15.3,3.19,4.27.13,7.94-2.5,11.77-2.6s5.73,2.38,9.62-.59c5.17-3.94,2.92-11.23-.43-15.77a16.64,16.64,0,0,0-8.11-5.56c-2.7-1-6.86.13-8.75-2.06-2.31-2.69-2-8.78-4.07-12.07A17.88,17.88,0,0,0,281.22,92.56Z"/><path class="cls-4" d="M349.59,159.6c-.52-19-40.87-12.12-50.82,2.17,5.56,6.89,13.26,11.16,22.71,13,7.16,1.37,14,1.05,21.24,1.33,4.4.17,9.33,1.3,13.94,1.68,1.13.09,2.38,0,3.61,0A13.81,13.81,0,0,0,349.59,159.6Z"/><path class="cls-5" d="M329.8,151.51c-9.86-.78-21.76,1.86-20.85,8.21,1,7.24,18.51,5.77,22.75,5,3.93-.68,10.92-2.57,9.17-8.31C339.66,152.49,333.13,151.78,329.8,151.51Z"/><path class="cls-6" d="M104.83,188.52c-.7,0-1.4-.05-2.11,0a1.59,1.59,0,0,1-1.44-.48c-1.34-1-2.3-2.37-3.52-3.46a9.16,9.16,0,0,0,.78-2.2c1-.06,2-.1,2.94-.11s1.75,0,2.62,0a9.83,9.83,0,0,1,3.33.93,22.64,22.64,0,0,0,3.62,1.12,34.7,34.7,0,0,0,7.06.18c4.94-.12,10.51-.13,15.08,2,3.38,1.57,5.5,4.53,7.94,7.22,2.18,2.41,4.46,2.14,6.89,3.81,3.57,2.45,4.23,8.91,6.11,12.58,2.81,5.5,3.69,1.79,7.73.54,2.7,3,.11,11.55-.22,15.07-.71,7.79.09,14.1,1.67,21.73,1.42,6.9,4.67,13.33,5,20.44a114.61,114.61,0,0,1,0,11.87c-.24,4.29,0,4-5,4-4.6,2.86-15.28-.1-20.89-.87.23-4.34,2.18-9.32,3.1-13.75,1.79-8.56,1.55-17.35,2-26,.36-7.06,5.37-14.59,4.1-21.62-.82-4.58-7-6.33-8.64-10.28-1.42-3.5-.56-7.95-2.68-11.11A51.45,51.45,0,0,0,137,195.6c-1-1.17-2.25-2.12-3.19-3.29a12.68,12.68,0,0,0-2-1.58,22.47,22.47,0,0,0-2.41-1.83,10.13,10.13,0,0,0-1.78-1.05,8.45,8.45,0,0,0-3.13.05,14.88,14.88,0,0,0-2.41.47,29.49,29.49,0,0,1-7.51.46c-1.89,0-3.8,0-5.67-.08C107.51,188.71,106.18,188.58,104.83,188.52Z"/><path class="cls-6" d="M187.23,176.09c-.92.53-1.52,1.85-2.23,2.69a24.13,24.13,0,0,1-5.25,4.35,19.83,19.83,0,0,0-4.54,4.24,48.59,48.59,0,0,0-5.51,8.49c-1.12,2.26-.9,4-3.07,1.92a13.75,13.75,0,0,0-4-3.2c-2.58-1.09-2.27-2.16-.71-4.61,4.56-7.14,13.92-9.32,20.45-13.93,3.51-2.48,5.82-5.84,9.92-7.6,2.89-1.25,5.68-1.49,8.69-2.18.16.55.58,1,.74,1.46-2.8,1-5.78,1.52-8.44,2.92C190.74,172,189.29,174.42,187.23,176.09Z"/><path class="cls-6" d="M167.21,150.08a146.56,146.56,0,0,1,15-2,46.76,46.76,0,0,1,7.28.24,13.64,13.64,0,0,0,5.64-.8c1.23-.41,5.25-1.32,2.23-1.7-2.43-.3-5,.27-7.45.16-2.78-.12-5.54-.31-8.35-.31-3.79,0-7.47,1-11.2,1.67-2.64.46-6.47.68-8.26,2.68-1,1.12-1.8,2.49-2.8,3.64-.76.86-2,2-2.35,3.13s.14,2.6.12,3.7c0,1.3-.33,2.63-.37,3.91,1.58-.58,1.61-5.56,2.48-7.12a47,47,0,0,1,2.93-4.1c.53-.75,1.21-2.34,2-2.79A6.43,6.43,0,0,1,167.21,150.08Z"/></g></g></g></svg>